<svg width="172" height="29" viewBox="0 0 192 31" fill="none" xmlns="http://www.w3.org/2000/svg" class="MuiSvgIcon-root MuiSvgIcon-fontSizeInherit css-72xgpm" focusable="false" aria-hidden="true"><path d="M80.6516 11.4377V27.2196H77.4846V16.9546L73.2547 27.2196H70.859L66.6075 16.9546V27.2196H63.4453V11.4377H67.0389L72.0593 23.1801L77.0797 11.445L80.6516 11.4377Z" fill="white"></path><path d="M94.4656 14.6938V27.2268H91.2769V25.6385C90.8597 26.1895 90.3123 26.6284 89.6838 26.9159C89.0145 27.2273 88.2841 27.3854 87.5459 27.3786C86.6435 27.3953 85.7516 27.1812 84.955 26.7568C84.1952 26.3356 83.5777 25.698 83.1811 24.9251C82.7303 24.0292 82.5091 23.0353 82.5376 22.0328V14.6938H85.7022V21.5918C85.7022 22.5848 85.9512 23.3496 86.4493 23.8863C86.7112 24.1578 87.0284 24.3699 87.3793 24.5084C87.7302 24.6469 88.1068 24.7084 88.4835 24.6889C88.864 24.7094 89.2444 24.6484 89.5994 24.51C89.9543 24.3715 90.2757 24.1589 90.5418 23.8863C91.0383 23.3512 91.2865 22.5864 91.2865 21.5918V14.6938H94.4656Z" fill="white"></path><path d="M99.6236 10.4878V27.2193H96.459V10.4878H99.6236Z" fill="white"></path><path d="M105.299 17.2941V23.3533C105.284 23.5186 105.303 23.6853 105.355 23.8429C105.407 24.0006 105.491 24.1457 105.602 24.2692C105.807 24.4596 106.15 24.5512 106.632 24.5512H108.095V27.2192H106.106C103.437 27.2192 102.103 25.9234 102.103 23.3316V17.3062H100.623V14.6935H102.115V11.5964H105.299V14.6935H108.095V17.2941H105.299Z" fill="white"></path><path d="M109.47 12.6692C109.294 12.4966 109.153 12.2904 109.057 12.0628C108.961 11.8351 108.912 11.5906 108.912 11.3436C108.912 11.0966 108.961 10.8521 109.057 10.6245C109.153 10.3968 109.294 10.1906 109.47 10.018C109.852 9.67521 110.347 9.4856 110.861 9.4856C111.374 9.4856 111.869 9.67521 112.252 10.018C112.428 10.191 112.567 10.3973 112.663 10.6249C112.758 10.8525 112.808 11.0968 112.808 11.3436C112.808 11.5904 112.758 11.8348 112.663 12.0624C112.567 12.29 112.428 12.4963 112.252 12.6692C111.869 13.012 111.374 13.2017 110.861 13.2017C110.347 13.2017 109.852 13.012 109.47 12.6692V12.6692ZM112.42 14.6938V27.2267H109.253V14.6938H112.42Z" fill="white"></path><path d="M114.386 17.5545C114.888 16.6081 115.649 15.824 116.58 15.2938C117.561 14.7513 118.669 14.4786 119.79 14.5032C121.342 14.5032 122.628 14.8913 123.646 15.6674C124.685 16.4813 125.407 17.632 125.688 18.9211H122.277C122.118 18.4077 121.796 17.9597 121.361 17.6437C120.894 17.323 120.335 17.1608 119.768 17.181C119.358 17.1645 118.95 17.245 118.577 17.4158C118.204 17.5867 117.876 17.8431 117.621 18.1643C117.094 18.8199 116.83 19.751 116.828 20.9577C116.826 22.1644 117.091 23.0875 117.621 23.727C117.876 24.0482 118.204 24.3046 118.577 24.4755C118.95 24.6463 119.358 24.7268 119.768 24.7104C121.048 24.7104 121.887 24.1391 122.277 22.9919H125.688C125.389 24.2727 124.663 25.4135 123.629 26.2264C122.606 27.0298 121.321 27.4314 119.773 27.4314C118.651 27.4524 117.543 27.1755 116.563 26.6289C115.633 26.098 114.872 25.3141 114.37 24.3681C113.849 23.3092 113.578 22.1449 113.578 20.9649C113.578 19.7849 113.849 18.6207 114.37 17.5618L114.386 17.5545Z" fill="white"></path><path d="M136.478 15.1346C137.225 15.5588 137.827 16.1967 138.208 16.9664C138.643 17.8722 138.855 18.8687 138.828 19.873V27.2193H135.663V20.302C135.663 19.3074 135.414 18.5426 134.916 18.0076C134.654 17.7364 134.337 17.5243 133.986 17.3855C133.635 17.2466 133.259 17.1843 132.882 17.2026C132.5 17.1828 132.118 17.2444 131.762 17.3832C131.405 17.5219 131.082 17.7347 130.814 18.0076C130.308 18.5426 130.055 19.3074 130.055 20.302V27.2193H126.893V10.4878H130.057V16.2529C130.483 15.6961 131.044 15.2566 131.686 14.9755C132.398 14.66 133.169 14.5022 133.947 14.5128C134.83 14.497 135.703 14.7113 136.478 15.1346V15.1346Z" fill="white"></path><path d="M140.65 17.5423C141.11 16.6114 141.822 15.8282 142.706 15.2815C143.583 14.7559 144.59 14.4863 145.612 14.503C146.464 14.4837 147.308 14.6775 148.066 15.067C148.727 15.4104 149.303 15.897 149.753 16.4914V14.7055H152.942V27.2384H149.75V25.4091C149.313 26.0228 148.734 26.5228 148.063 26.8673C147.298 27.2625 146.447 27.4605 145.586 27.4433C144.563 27.4545 143.56 27.1717 142.693 26.6286C141.81 26.0676 141.099 25.2736 140.638 24.3342C140.115 23.277 139.855 22.1098 139.878 20.931C139.857 19.7556 140.121 18.5925 140.65 17.5423V17.5423ZM149.297 18.9884C149.017 18.4609 148.595 18.0226 148.078 17.723C147.576 17.4321 147.007 17.2798 146.427 17.282C145.844 17.2759 145.271 17.43 144.771 17.7276C144.27 18.0251 143.861 18.4546 143.588 18.9691C143.267 19.5695 143.107 20.2431 143.125 20.9237C143.109 21.6119 143.269 22.2927 143.588 22.9025C143.869 23.4386 144.292 23.8877 144.81 24.2016C145.296 24.4996 145.856 24.6565 146.427 24.6547C147.007 24.6568 147.576 24.5046 148.078 24.2136C148.599 23.9129 149.026 23.471 149.307 22.9387C149.605 22.3216 149.76 21.6452 149.76 20.9599C149.76 20.2746 149.605 19.5982 149.307 18.9811L149.297 18.9884Z" fill="white"></path><path d="M155.123 12.6692C154.946 12.4966 154.805 12.2904 154.71 12.0628C154.614 11.8351 154.564 11.5906 154.564 11.3436C154.564 11.0966 154.614 10.8521 154.71 10.6245C154.805 10.3968 154.946 10.1906 155.123 10.018C155.505 9.67521 156 9.4856 156.513 9.4856C157.027 9.4856 157.522 9.67521 157.904 10.018C158.081 10.1906 158.221 10.3968 158.317 10.6245C158.413 10.8521 158.462 11.0966 158.462 11.3436C158.462 11.5906 158.413 11.8351 158.317 12.0628C158.221 12.2904 158.081 12.4966 157.904 12.6692C157.522 13.012 157.027 13.2017 156.513 13.2017C156 13.2017 155.505 13.012 155.123 12.6692V12.6692ZM158.073 14.6938V27.2267H154.908V14.6938H158.073Z" fill="white"></path><path d="M170.621 15.9252C171.541 16.8667 172 18.1827 172 19.873V27.2193H168.831V20.3021C168.831 19.3075 168.582 18.5426 168.084 18.0076C167.821 17.7364 167.504 17.5243 167.153 17.3855C166.803 17.2466 166.426 17.1843 166.049 17.2026C165.667 17.1831 165.285 17.2448 164.928 17.3835C164.571 17.5223 164.248 17.7349 163.979 18.0076C163.475 18.5426 163.222 19.3075 163.222 20.3021V27.2193H160.062V14.6863H163.227V16.2457C163.657 15.6978 164.212 15.26 164.844 14.9683C165.524 14.6537 166.265 14.4956 167.013 14.5056C168.5 14.504 169.702 14.9772 170.621 15.9252Z" fill="white"></path><path d="M37.3483 4.32033C37.7114 4.31984 38.071 4.39113 38.4065 4.53011C38.742 4.66909 39.0466 4.87301 39.303 5.13016L42.2651 8.09468C42.6685 8.49483 43.2129 8.72071 43.7811 8.72373C44.2709 8.72531 44.7445 8.54887 45.1139 8.22724C45.3272 8.04139 45.5 7.81373 45.6216 7.55836C45.7433 7.303 45.8112 7.02536 45.8211 6.74268C45.831 6.45999 45.7828 6.17827 45.6794 5.91499C45.576 5.65171 45.4196 5.41247 45.22 5.2121L42.2964 2.29096C41.6471 1.63948 40.8755 1.12256 40.026 0.769856C39.1765 0.417152 38.2657 0.235596 37.3459 0.235596C36.4261 0.235596 35.5153 0.417152 34.6658 0.769856C33.8163 1.12256 33.0447 1.63948 32.3954 2.29096L12.6801 22.0062C12.2474 22.4419 11.7325 22.7875 11.1653 23.0229C10.5981 23.2583 9.98988 23.3788 9.37578 23.3776V23.3776C8.22967 23.3839 7.1257 22.9459 6.29557 22.1557C5.85868 21.74 5.50937 21.2411 5.26818 20.6884C5.02699 20.1356 4.89881 19.5403 4.89117 18.9373C4.88354 18.3343 4.9966 17.7358 5.22372 17.1772C5.45083 16.6185 5.78741 16.111 6.21363 15.6843L7.1078 14.8022L8.79493 16.4893V10.0638H2.36216L4.18185 11.8835L3.38649 12.6788C-0.0215086 16.0868 -0.0697107 21.5965 3.28044 24.9708C4.08274 25.7779 5.03643 26.4189 6.08686 26.8568C7.1373 27.2947 8.26383 27.5211 9.40191 27.5229C10.54 27.5247 11.6672 27.3019 12.719 26.8672C13.7708 26.4326 14.7265 25.7947 15.5314 24.99L35.3961 5.12533C35.6522 4.86892 35.9566 4.66577 36.2917 4.52761C36.6268 4.38944 36.9859 4.319 37.3483 4.32033Z" fill="white"></path><path d="M52.5636 12.6791L51.0958 11.2113L52.9179 9.38916H46.4995V15.8075L48.1867 14.1203L49.7412 15.6749C50.1682 16.101 50.5055 16.6084 50.7332 17.167C50.9609 17.7256 51.0744 18.3242 51.067 18.9274C51.0596 19.5305 50.9314 20.1261 50.69 20.679C50.4487 21.2318 50.099 21.7307 49.6617 22.1462C48.8314 22.9363 47.7276 23.3742 46.5815 23.3682C45.9652 23.3729 45.3542 23.2549 44.784 23.0212C44.2138 22.7874 43.6958 22.4424 43.2603 22.0065L32.7254 11.4716L29.8066 14.3903L40.4114 24.9951C41.2163 25.7997 42.172 26.4376 43.2238 26.8723C44.2756 27.3069 45.4028 27.5297 46.5409 27.5279C47.679 27.5261 48.8055 27.2998 49.8559 26.8618C50.9064 26.4239 51.8601 25.783 52.6624 24.9758C56.0198 21.604 55.9716 16.0871 52.5636 12.6791Z" fill="white"></path><path d="M10.2124 8.85147C10.5817 9.1731 11.0554 9.34955 11.5452 9.34797C12.1134 9.34494 12.6578 9.11907 13.0612 8.71891L16.6475 5.13016C16.904 4.87356 17.2086 4.67001 17.5438 4.53114C17.8789 4.39227 18.2382 4.32079 18.601 4.32079C18.9638 4.32079 19.3231 4.39227 19.6582 4.53114C19.9934 4.67001 20.2979 4.87356 20.5544 5.13016L23.2056 7.78135L26.1244 4.86263L23.5527 2.29096C22.9034 1.63948 22.1318 1.12256 21.2823 0.769856C20.4328 0.417152 19.522 0.235596 18.6022 0.235596C17.6824 0.235596 16.7716 0.417152 15.9221 0.769856C15.0726 1.12256 14.301 1.63948 13.6517 2.29096L10.1063 5.8267C9.90665 6.02706 9.75027 6.2663 9.64687 6.52959C9.54347 6.79287 9.49524 7.07459 9.50518 7.35727C9.51513 7.63996 9.58302 7.91759 9.70467 8.17296C9.82632 8.42833 9.99912 8.65599 10.2124 8.84183V8.85147Z" fill="white"></path></svg>