<svg width="131" height="37" viewBox="0 0 131 37" fill="none" xmlns="http://www.w3.org/2000/svg"><path fill-rule="evenodd" clip-rule="evenodd" d="M18.611 0.214584C14.243 0.213132 10.0171 1.76648 6.68993 4.59651C3.36274 7.42654 1.15151 11.3485 0.45214 15.6601C-0.247232 19.9717 0.610922 24.3915 2.87296 28.1282C5.135 31.8648 8.65321 34.6743 12.7977 36.0536C13.7113 36.2241 14.0523 35.6547 14.0523 35.1705C14.0523 34.6863 14.0371 33.2825 14.028 31.7446C8.91201 32.8592 7.83401 29.5765 7.83401 29.5765C6.99658 27.4448 5.79068 26.8845 5.79068 26.8845C4.12191 25.7426 5.91858 25.7669 5.91858 25.7669C7.76397 25.8979 8.73539 27.661 8.73539 27.661C10.3768 30.4748 13.0383 29.6617 14.0889 29.1836C14.2533 27.996 14.7284 27.186 15.2552 26.7261C11.1716 26.2602 6.87781 24.6828 6.87781 17.6362C6.85044 15.8093 7.52892 14.0422 8.77193 12.703C8.58008 12.2371 7.94973 10.3673 8.94856 7.83065C8.94856 7.83065 10.4925 7.33733 14.0066 9.71868C17.0214 8.89038 20.2037 8.89038 23.2184 9.71868C26.7265 7.33733 28.2704 7.83065 28.2704 7.83065C29.2692 10.3643 28.6419 12.234 28.4501 12.703C29.692 14.0426 30.3693 15.8097 30.3411 17.6362C30.3411 24.7011 26.0413 26.2572 21.9455 26.7109C22.6063 27.2804 23.194 28.401 23.194 30.1155C23.194 32.576 23.1727 34.5584 23.1727 35.1644C23.1727 35.6517 23.5016 36.2272 24.4334 36.0445C28.5764 34.6632 32.0926 31.8527 34.3528 28.1159C36.6129 24.3791 37.4694 19.9599 36.7691 15.6493C36.0687 11.3386 33.8571 7.41792 30.5302 4.58886C27.2033 1.7598 22.9781 0.207046 18.611 0.208497V0.214584Z" fill="white"></path><path d="M63.6288 22.4637V19.2268H68.9696V28.7486C66.3981 29.1622 64.3121 29.369 62.7116 29.369C59.8524 29.369 57.8833 28.6047 56.8044 27.0762C55.7434 25.5477 55.2129 23.1201 55.2129 19.7933C55.2129 16.4665 55.7704 14.0658 56.8853 12.5912C58.0002 11.1167 59.8974 10.3794 62.5768 10.3794C64.2492 10.3794 66.0564 10.5682 67.9985 10.9458L68.9696 11.1346L68.8617 14.0208C66.7038 13.7871 64.9325 13.6702 63.5478 13.6702C62.1812 13.6702 61.2191 13.832 60.6616 14.1557C60.1042 14.4794 59.6906 15.0818 59.4208 15.963C59.1691 16.8261 59.0432 18.3187 59.0432 20.4406C59.0432 22.5446 59.3039 24.0192 59.8254 24.8644C60.3469 25.7095 61.4259 26.1321 63.0623 26.1321L65.3011 26.0242V22.4637H63.6288Z" fill="white"></path><path d="M72.1614 29.0453V15.5584H75.7759V29.0453H72.1614ZM72.1614 13.832V10.1636H75.7759V13.832H72.1614Z" fill="white"></path><path d="M86.5874 18.6334H83.2696V24.163C83.2696 24.7025 83.2786 25.0891 83.2965 25.3229C83.3325 25.5387 83.4314 25.7275 83.5933 25.8894C83.7731 26.0512 84.0428 26.1321 84.4025 26.1321L86.4525 26.0782L86.6143 28.9644C85.4095 29.2341 84.4924 29.369 83.863 29.369C82.2446 29.369 81.1386 29.0094 80.5452 28.2901C79.9518 27.5528 79.6551 26.2041 79.6551 24.244V18.6334H78.0636V15.5584H79.6551V11.809H83.2696V15.5584H86.5874V18.6334Z" fill="white"></path><path d="M92.5555 29.0453H88.941V10.1636H92.5555V16.2057C93.7964 15.5584 94.9113 15.2347 95.9003 15.2347C97.6986 15.2347 98.9394 15.7652 99.6227 16.8261C100.306 17.8871 100.648 19.5235 100.648 21.7354V29.0453H97.0332V21.8163C97.0332 20.6834 96.8984 19.8472 96.6286 19.3077C96.3589 18.7503 95.8194 18.4715 95.0102 18.4715C94.3089 18.4715 93.6075 18.5794 92.9062 18.7952L92.5555 18.9031V29.0453Z" fill="white"></path><path d="M111.808 15.5584H115.422V29.0453H111.835V28.2901C110.54 29.0094 109.416 29.369 108.463 29.369C106.593 29.369 105.334 28.8565 104.687 27.8315C104.039 26.7885 103.716 25.0532 103.716 22.6255V15.5584H107.33V22.6795C107.33 24.0102 107.438 24.9183 107.654 25.4038C107.87 25.8894 108.391 26.1321 109.218 26.1321C110.01 26.1321 110.756 26.0063 111.457 25.7545L111.808 25.6466V15.5584Z" fill="white"></path><path d="M125.288 15.2347C127.176 15.2347 128.551 15.7562 129.415 16.7992C130.296 17.8242 130.736 19.6674 130.736 22.3288C130.736 24.9902 130.233 26.8335 129.226 27.8585C128.219 28.8655 126.483 29.369 124.02 29.369C123.247 29.369 121.835 29.2791 119.785 29.0993L118.76 28.9914V10.1636H122.374V15.963C123.525 15.4774 124.496 15.2347 125.288 15.2347ZM124.02 26.1321C125.225 26.1321 126.034 25.8444 126.447 25.269C126.861 24.6755 127.068 23.6236 127.068 22.113C127.068 19.6854 126.313 18.4715 124.802 18.4715C124.083 18.4715 123.399 18.5615 122.752 18.7413L122.374 18.8222V26.0242C123.202 26.0962 123.75 26.1321 124.02 26.1321Z" fill="white"></path></svg>