<svg width="112" height="21" viewBox="0 0 112 21" fill="none" xmlns="http://www.w3.org/2000/svg"><path d="M16.7358 10.0715C16.7358 13.7821 13.7067 16.8112 9.99609 16.8112V20.1432C15.5242 20.1432 20.0678 15.5996 20.0678 10.0715H16.7358Z" fill="#F5FDFF"></path><path d="M10.0717 3.33198V0C4.54361 0 0 4.54361 0 10.0717H3.33198C3.33198 6.36106 6.36105 3.33198 10.0717 3.33198Z" fill="#F5FDFF"></path><path d="M12.4188 10.0715H15.7508C15.7508 6.89102 13.1761 4.39203 10.0713 4.39203V7.72401C11.3586 7.72401 12.4188 8.78419 12.4188 10.0715Z" fill="#F5FDFF"></path><path d="M7.72411 10.0715H4.31641C4.31641 13.2521 6.89112 15.751 9.99592 15.751V12.4191C8.78429 12.4191 7.72411 11.3589 7.72411 10.0715Z" fill="#F5FDFF"></path><path d="M25.5203 14.2369C26.2776 14.4641 27.0349 14.6155 27.8679 14.767C28.7008 14.8427 29.5338 14.9184 30.2911 14.9184C30.6697 14.9184 31.0484 14.9184 31.427 14.9184C31.8057 14.9184 32.1843 14.8427 32.6386 14.767V11.8894L30.3668 11.6622C29.3824 11.5865 28.5494 11.435 27.8679 11.2836C27.1863 11.0564 26.6562 10.8292 26.2776 10.5263C25.899 10.2234 25.5961 9.76901 25.4446 9.23892C25.2931 8.70884 25.2174 8.0273 25.2174 7.27003C25.2174 6.0584 25.3689 5.07395 25.7475 4.31668C26.1261 3.55941 26.6562 3.02932 27.4135 2.72642C28.1708 2.42351 29.2309 2.27206 30.5183 2.27206C31.427 2.27206 32.3357 2.34778 33.1687 2.42351C34.0017 2.49924 34.9105 2.65069 35.7434 2.87787L35.2891 5.75549C34.5318 5.60404 33.7745 5.52831 33.1687 5.45258C32.5629 5.37686 31.8814 5.37686 31.1241 5.37686C30.6697 5.37686 30.2911 5.37686 29.9882 5.37686C29.6853 5.37686 29.3824 5.45258 29.0795 5.45258V8.40593L31.2756 8.55739C32.5629 8.63311 33.5474 8.86029 34.3046 9.23892C35.0619 9.54183 35.592 10.0719 35.9706 10.7535C36.3493 11.3593 36.5007 12.268 36.5007 13.3282C36.5007 14.4641 36.2735 15.3728 35.8949 16.1301C35.5163 16.8116 34.8347 17.3417 34.0017 17.6446C33.1687 17.9475 31.9571 18.099 30.594 18.099C29.6096 18.099 28.6251 18.0232 27.7164 17.9475C26.8077 17.8718 25.899 17.6446 24.9902 17.4174L25.5203 14.2369ZM38.4696 10.0719C38.4696 8.48166 38.5453 7.1943 38.7725 6.20985C38.9997 5.14967 39.3026 4.39241 39.8327 3.78659C40.3628 3.18078 40.9686 2.80215 41.8773 2.49924C42.7103 2.27206 43.8462 2.12061 45.1336 2.12061C46.4209 2.12061 47.4811 2.27206 48.3898 2.49924C49.2985 2.72642 49.9044 3.18078 50.4345 3.78659C50.9645 4.39241 51.2675 5.14967 51.4946 6.20985C51.7218 7.1943 51.7975 8.48166 51.7975 10.0719C51.7975 11.6622 51.7218 12.9495 51.4946 13.934C51.2675 14.9184 50.9645 15.7514 50.4345 16.3572C49.9801 16.9631 49.2985 17.3417 48.3898 17.5689C47.4811 17.7961 46.4209 17.9475 45.1336 17.9475C43.8462 17.9475 42.7103 17.7961 41.8773 17.5689C41.0443 17.3417 40.3628 16.8873 39.8327 16.3572C39.3026 15.7514 38.9997 14.9942 38.7725 13.934C38.6211 12.9495 38.4696 11.6622 38.4696 10.0719ZM42.3317 14.8427H45.9666C46.7238 14.8427 47.2539 14.767 47.5568 14.5398C47.8597 14.3126 48.0112 13.934 48.0112 13.3282V5.2254H44.3763C43.619 5.2254 43.089 5.30113 42.8618 5.52831C42.5589 5.75549 42.4831 6.13413 42.4831 6.73994V14.8427H42.3317ZM54.6752 17.5689V2.49924H58.2343V14.6155H63.308V17.5689H54.6752ZM65.1255 2.49924H68.6846V17.5689H65.1255V2.49924ZM72.1681 2.49924H78.2262C79.5136 2.49924 80.6495 2.57496 81.4825 2.80214C82.3155 3.02932 82.997 3.40796 83.4514 3.93805C83.9057 4.46813 84.2844 5.2254 84.4358 6.20985C84.5873 7.1943 84.7387 8.40593 84.7387 9.99619C84.7387 11.5107 84.663 12.7224 84.4358 13.7068C84.2086 14.6913 83.9057 15.4485 83.4514 16.0543C82.997 16.5844 82.3155 16.9631 81.4825 17.1902C80.6495 17.4174 79.5893 17.4932 78.2262 17.4932H72.1681V2.49924ZM75.7272 5.37686V14.6913H78.9835C79.665 14.6913 80.1951 14.6155 80.4223 14.3884C80.7252 14.1612 80.8009 13.7068 80.8009 13.101V7.04285C80.8009 6.43704 80.6495 5.98267 80.4223 5.75549C80.1194 5.52831 79.665 5.37686 78.9835 5.37686H75.7272ZM91.0998 11.3593V14.6155H97.2336V17.5689H87.4649V2.49924H97.2336L96.7793 5.45258H91.024V8.70884H96.3249V11.3593H91.0998ZM112 17.5689H108.063L98.6725 2.49924H102.686L112 17.5689ZM106.245 10.9806L102.307 17.5689H98.4453L103.67 8.70884L106.245 10.9806ZM104.049 9.1632L107.987 2.57497H111.925L106.699 11.435L104.049 9.1632Z" fill="#F5FDFF"></path></svg>