<svg width="524" height="524" viewBox="0 0 524 524" fill="none" xmlns="http://www.w3.org/2000/svg"><path d="M392.582 392.582C464.854 320.309 464.854 203.133 392.582 130.861C320.309 58.5883 203.133 58.5882 130.861 130.86C58.5883 203.133 58.5883 320.309 130.861 392.582C203.133 464.854 320.309 464.854 392.582 392.582Z" stroke="url(#paint0_linear_5952_25398)" stroke-width="10.5708" stroke-miterlimit="10" stroke-linecap="round"></path><path opacity="0.4" d="M73.0786 296.579C82.7137 296.579 90.5245 288.769 90.5245 279.134C90.5245 269.499 82.7137 261.688 73.0786 261.688C63.4435 261.688 55.6328 269.499 55.6328 279.134C55.6328 288.769 63.4435 296.579 73.0786 296.579Z" fill="url(#paint1_linear_5952_25398)"></path><path d="M398.4 266.235C398.4 281.435 395.9 296.135 391.3 309.835C389.9 305.535 388.2 301.235 386.5 297.035C380.3 281.335 373.5 265.635 362.9 252.235C360.2 248.835 357.3 245.635 353.8 243.035C344.3 231.035 332.9 220.735 319.7 214.235C307.4 208.435 293.8 206.335 280.4 205.335C264.4 204.235 247.9 204.835 232.5 210.235C219.1 214.935 207.1 222.935 196 232.135L181.7 229.535C174.8 240.135 167.9 250.635 160.9 261.235C150.2 277.635 139.5 294.035 133.1 312.635C127.9 298.135 125 282.535 125 266.235C125 190.735 186.2 129.535 261.7 129.535C337.2 129.535 398.4 190.735 398.4 266.235Z" fill="#FF4E93"></path><path d="M370.801 348.535C372.001 336.635 371.601 324.535 369.801 312.735C365.701 286.935 369.501 262.635 353.801 242.835C357.301 245.435 360.201 248.735 362.901 252.035C373.501 265.535 380.301 281.135 386.501 296.835C388.201 301.035 389.801 305.335 391.301 309.635C386.501 323.835 379.601 336.935 370.801 348.535Z" fill="url(#paint2_linear_5952_25398)" stroke="black" stroke-miterlimit="10"></path><path d="M370.8 348.535C359.4 363.535 345.1 376.135 328.6 385.435C308.8 396.535 286 402.935 261.7 402.935C237.4 402.935 214.6 396.635 194.8 385.435C196.2 383.535 197.6 381.435 198.7 379.335C200.3 376.335 201.5 373.135 202.6 369.935C204.6 364.735 206.6 359.535 208.4 354.535C210.4 349.335 212.1 342.835 208.4 338.635C203.9 333.735 195.7 336.335 189.6 333.535C186.8 332.335 184.7 330.035 182.6 327.835C177.3 322.235 171.7 316.235 170.1 308.735C168.9 302.535 170.5 296.135 173.2 290.435C176 284.735 180 279.835 183.7 274.735C188.3 268.535 192.5 262.035 195.2 254.835C197.9 247.635 198.9 239.635 196.9 232.235L196 232.035C207.1 222.835 219.1 214.735 232.5 210.135C247.9 204.735 264.4 204.135 280.4 205.235C293.7 206.235 307.3 208.335 319.7 214.135C332.9 220.535 344.3 230.935 353.8 242.935C369.6 262.735 365.8 287.035 369.8 312.835C371.6 324.535 372 336.635 370.8 348.535Z" fill="url(#paint3_linear_5952_25398)" stroke="black" stroke-miterlimit="10"></path><path d="M208.5 354.435C206.6 359.535 204.7 364.735 202.7 369.835C201.6 373.035 200.4 376.235 198.8 379.235C197.7 381.435 196.3 383.435 194.9 385.335C185.5 380.035 176.9 373.735 169 366.535C153 351.935 140.6 333.435 133.1 312.635C139.5 294.035 150.2 277.635 160.9 261.235C167.8 250.635 174.7 240.135 181.7 229.535L196.1 232.035L197 232.235C199 239.635 198 247.635 195.3 254.835C192.6 262.035 188.4 268.535 183.8 274.735C180.1 279.835 176.1 284.735 173.3 290.435C170.6 296.135 169 302.535 170.2 308.735C171.8 316.235 177.4 322.335 182.7 327.835C184.8 330.035 186.9 332.235 189.7 333.535C195.7 336.235 204 333.635 208.5 338.635C212.2 342.735 210.4 349.335 208.5 354.435Z" fill="url(#paint4_linear_5952_25398)" stroke="black" stroke-miterlimit="10"></path><path d="M240.701 281.635C240.901 287.535 243.401 293.135 245.901 298.535C254.301 317.035 262.901 335.935 277.401 350.735C279.301 352.735 281.701 354.735 284.601 354.235C286.201 354.035 287.401 352.735 288.601 351.635C296.901 343.235 301.901 332.335 304.901 321.135C307.901 309.935 308.701 298.535 309.701 287.035C309.901 283.735 310.201 280.235 308.801 277.135C307.701 274.635 305.701 272.735 303.501 271.035C295.001 264.535 283.901 261.535 272.901 260.635C265.401 260.035 257.501 260.535 250.401 263.235C243.301 266.135 243.001 274.835 240.701 281.635Z" fill="url(#paint5_linear_5952_25398)" stroke="black" stroke-miterlimit="10"></path><path d="M268.801 269.035C277.101 296.935 281.901 325.635 283.201 354.335" stroke="black" stroke-miterlimit="10" stroke-linecap="round" stroke-linejoin="round"></path><path d="M286.901 303.035C290.501 302.135 289.201 296.035 285.901 295.735C281.501 295.635 282.801 304.035 286.901 303.035Z" fill="url(#paint6_linear_5952_25398)" stroke="black" stroke-miterlimit="10"></path><path d="M286.401 322.435C286.601 323.135 287.001 323.835 287.501 324.435C287.901 324.835 288.401 325.135 288.901 325.435C289.601 325.635 290.501 325.835 291.001 325.235C293.801 321.935 284.501 315.735 286.401 322.435Z" fill="url(#paint7_linear_5952_25398)" stroke="black" stroke-miterlimit="10"></path><path d="M310.501 294.035C313.301 294.935 316.701 295.035 318.901 292.835C320.801 290.935 321.101 288.035 321.401 285.135C322.301 274.235 321.601 263.235 319.801 252.535C319.601 251.035 319.201 249.535 318.601 248.235C317.601 246.335 316.001 244.935 314.401 243.935C307.901 239.835 299.301 240.735 292.801 244.935C288.401 247.935 284.801 252.335 282.401 257.435C279.601 263.335 280.501 266.235 284.401 271.135C291.401 280.235 299.401 290.935 310.501 294.035Z" fill="url(#paint8_linear_5952_25398)" stroke="black" stroke-miterlimit="10"></path><path d="M265.801 258.535C261.101 250.435 254.101 243.835 245.901 240.035C239.501 236.935 230.801 236.235 226.301 242.035C223.801 245.235 223.201 249.535 222.801 253.735C222.101 262.735 222.201 271.835 223.201 281.035C223.901 287.435 225.801 295.035 231.301 297.235C236.501 299.335 242.001 295.835 246.101 291.935C253.501 284.935 259.201 275.835 262.601 265.835" fill="url(#paint9_linear_5952_25398)"></path><path d="M265.801 258.535C261.101 250.435 254.101 243.835 245.901 240.035C239.501 236.935 230.801 236.235 226.301 242.035C223.801 245.235 223.201 249.535 222.801 253.735C222.101 262.735 222.201 271.835 223.201 281.035C223.901 287.435 225.801 295.035 231.301 297.235C236.501 299.335 242.001 295.835 246.101 291.935C253.501 284.935 259.201 275.835 262.601 265.835" stroke="black" stroke-miterlimit="10"></path><path d="M258.902 270.835C259.002 271.735 259.002 272.535 259.502 273.435C260.002 274.435 260.902 275.035 261.802 275.535C267.602 278.635 274.402 277.435 280.802 276.135C281.902 275.935 283.302 275.535 283.802 274.435C284.002 273.935 284.002 273.435 284.202 272.835C284.702 267.435 284.402 261.835 283.702 256.535C283.502 254.935 283.102 253.235 282.102 252.135C281.402 251.235 280.202 250.635 279.302 250.235C274.502 248.235 264.602 244.835 260.402 249.835C256.402 254.435 258.502 265.335 258.902 270.835Z" fill="url(#paint10_linear_5952_25398)" stroke="black" stroke-miterlimit="10"></path><path d="M295.6 139.635C295.4 131.135 295.5 121.935 300.8 115.335C307 107.535 319.1 105.935 327.8 110.635C336.6 115.335 341.8 125.235 342.5 135.035C343.2 145.635 338.9 157.035 330 162.835C321.1 168.635 307.8 167.735 301 159.535" fill="url(#paint11_linear_5952_25398)"></path><path d="M295.6 139.635C295.4 131.135 295.5 121.935 300.8 115.335C307 107.535 319.1 105.935 327.8 110.635C336.6 115.335 341.8 125.235 342.5 135.035C343.2 145.635 338.9 157.035 330 162.835C321.1 168.635 307.8 167.735 301 159.535" stroke="black" stroke-miterlimit="10"></path><path d="M192.3 192.035C204.5 213.635 222.6 232.135 244.7 243.435C266.8 254.635 292.9 258.535 316.9 252.435C322.6 250.935 328.1 248.935 333.1 246.035C349.5 235.935 356.9 215.735 358.9 196.635C359 194.935 359.1 192.935 358.2 191.435C357.3 190.235 356 189.535 354.6 189.135C338.3 182.435 320.8 175.035 312.4 159.735C311.9 158.735 311.4 157.635 311.5 156.535C311.7 155.035 313 153.935 313.8 152.835C316 149.735 315.8 145.335 314 141.835C312.3 138.335 309.2 135.735 306.1 133.435C278.8 112.935 242.1 108.335 208.3 113.735C199.1 115.235 181.6 118.535 177.2 128.335C174.7 133.635 176.6 142.435 177.2 147.935C178.1 155.135 179.8 162.235 182 169.135C184.8 177.135 188.3 184.735 192.3 192.035Z" fill="url(#paint12_linear_5952_25398)" stroke="black" stroke-miterlimit="10"></path><path d="M358.201 191.435C357.301 190.235 356.001 189.535 354.601 189.135C338.301 182.435 320.801 175.035 312.401 159.735C311.901 158.735 311.401 157.635 311.501 156.535C311.701 155.035 313.001 153.935 313.801 152.835C316.001 149.735 315.801 145.335 314.001 141.835C312.301 138.335 309.201 135.735 306.101 133.435C302.401 130.635 298.601 128.235 294.601 126.035C284.601 126.535 272.501 127.835 263.501 130.735C250.001 135.035 237.601 143.435 230.701 155.835C223.801 168.135 223.701 184.435 232.401 195.635C233.001 196.535 233.901 197.335 233.901 198.435C233.901 199.635 233.001 200.635 232.201 201.635C227.501 207.235 225.801 214.835 226.901 222.035C227.601 226.435 231.101 232.835 234.301 237.535C237.701 239.735 241.101 241.735 244.701 243.535C266.801 254.735 292.901 258.635 316.901 252.535C322.601 251.035 328.101 249.035 333.101 246.135C349.501 236.035 356.901 215.835 358.901 196.735C359.001 194.835 359.201 192.935 358.201 191.435Z" fill="url(#paint13_linear_5952_25398)" stroke="black" stroke-miterlimit="10"></path><path d="M291.301 188.535C290.301 189.335 290.801 190.935 292.101 190.935C297.901 190.635 303.701 189.235 309.101 186.835C312.501 185.235 302.501 183.435 300.701 183.735C297.401 184.135 294.101 186.335 291.301 188.535Z" fill="url(#paint14_linear_5952_25398)" stroke="black" stroke-miterlimit="10"></path><path d="M244.3 213.935C250.6 221.935 259.4 228.135 269.1 230.935C276.9 233.235 285 233.635 293.1 233.735C299.4 233.835 305.7 233.835 311.9 233.135C326.8 231.435 341.2 225.335 352.8 215.735C355.3 213.635 357.7 211.435 359.6 208.735C362.8 203.935 363.8 197.835 362.4 192.335C361.2 187.435 356.7 182.335 351.7 183.535C348 184.435 345.9 188.235 343.3 190.935C339.8 194.735 334.9 196.835 330.1 198.735C314.8 204.435 298.1 206.635 281.8 205.435C275.4 204.935 269.8 203.835 264.1 200.735C259.3 198.135 253.5 195.335 247.8 196.335C238.2 197.935 239.6 207.835 244.3 213.935Z" fill="url(#paint15_linear_5952_25398)" stroke="black" stroke-miterlimit="10"></path><path d="M248.9 205.335C257.9 215.835 273 218.635 286.9 218.835C313.1 219.235 340.5 211.435 358.8 192.535" stroke="black" stroke-miterlimit="10" stroke-linecap="round" stroke-linejoin="round"></path><path d="M206.501 186.735C199.501 175.635 185.301 169.535 172.301 172.035C158.001 174.735 146.201 187.135 143.501 201.435C140.801 215.735 146.701 231.235 157.901 240.735C163.001 244.935 168.801 248.035 174.901 250.235C181.401 252.535 188.601 254.235 195.401 252.835C200.001 251.935 204.301 249.735 208.101 246.935C216.501 240.535 223.101 232.035 223.101 221.435" fill="url(#paint16_linear_5952_25398)"></path><path d="M206.501 186.735C199.501 175.635 185.301 169.535 172.301 172.035C158.001 174.735 146.201 187.135 143.501 201.435C140.801 215.735 146.701 231.235 157.901 240.735C163.001 244.935 168.801 248.035 174.901 250.235C181.401 252.535 188.601 254.235 195.401 252.835C200.001 251.935 204.301 249.735 208.101 246.935C216.501 240.535 223.101 232.035 223.101 221.435" stroke="black" stroke-miterlimit="10"></path><path d="M291.001 130.335C286.901 132.035 283.301 135.035 281.501 138.935C280.001 142.035 279.501 145.335 279.401 148.835C279.201 155.735 280.101 163.035 284.201 168.735C287.201 172.935 291.601 176.035 296.301 178.135C300.701 180.135 305.801 181.435 310.601 180.135C323.401 176.635 323.801 161.535 322.801 150.835C321.901 142.435 320.701 135.735 312.701 131.735C305.901 128.435 298.001 127.235 291.001 130.335Z" fill="white" stroke="black" stroke-miterlimit="10"></path><path d="M312.401 131.735C305.701 128.435 298.001 127.135 290.901 130.235C286.801 131.935 283.201 134.935 281.401 138.835C279.901 141.935 279.401 145.235 279.301 148.735C279.201 151.235 279.301 153.835 279.501 156.235C284.301 150.335 291.401 146.235 298.801 144.335C306.301 142.635 314.401 143.135 321.801 145.235C320.801 139.635 318.701 135.035 312.401 131.735Z" fill="url(#paint17_linear_5952_25398)" stroke="black" stroke-miterlimit="10"></path><path d="M275.601 147.835C266.001 141.635 255.201 135.235 243.901 136.735C232.201 138.335 222.401 149.435 222.501 161.335C222.601 169.735 227.101 177.735 233.601 183.035C240.101 188.335 248.401 191.035 256.701 191.935C262.301 192.535 268.101 192.135 273.201 189.935C281.701 186.335 286.801 177.835 287.601 168.835C288.001 165.335 288.601 161.435 287.101 158.235C285.101 153.635 279.801 150.435 275.601 147.835Z" fill="white" stroke="black" stroke-miterlimit="10"></path><path d="M270.401 152.635C267.601 152.135 264.601 154.135 263.201 156.735C262.101 158.735 261.701 161.335 262.601 163.435C264.001 166.735 268.401 168.535 271.701 167.135C279.001 164.035 278.001 154.035 270.401 152.635Z" fill="black"></path><path d="M267.401 154.335C266.501 154.235 265.501 154.835 265.201 155.535C264.801 156.135 264.701 157.035 265.001 157.635C265.501 158.735 266.901 159.235 268.001 158.835C270.101 158.035 269.901 154.735 267.401 154.335Z" fill="#FEFEFE"></path><path d="M272.402 157.535C271.802 157.435 271.202 157.935 270.802 158.435C270.602 158.935 270.402 159.435 270.702 159.935C270.902 160.635 271.902 161.035 272.802 160.835C274.302 160.135 274.102 157.935 272.402 157.535Z" fill="#FEFEFE"></path><path d="M266.8 161.735C266.3 161.635 265.8 161.935 265.6 162.335C265.5 162.735 265.4 163.035 265.5 163.435C265.7 164.035 266.5 164.335 267 164.035C268.3 163.735 268.2 162.035 266.8 161.735Z" fill="#FEFEFE"></path><path d="M293.7 152.535C292.5 154.435 292.5 156.935 293.8 158.735C294.3 159.335 294.8 159.835 295.4 160.235C295.6 160.335 296 160.635 296.3 160.735C297.8 161.335 299.4 161.635 300.9 160.935C308.8 157.435 298.8 144.535 293.7 152.535Z" fill="black"></path><path d="M297.3 151.335C296.7 151.235 296.2 151.535 295.8 152.235C295.6 152.635 295.6 153.135 295.7 153.635C295.9 154.335 296.8 154.635 297.6 154.335C299 153.635 298.8 151.535 297.3 151.335Z" fill="#FEFEFE"></path><path d="M300.401 153.335C300.001 153.235 299.501 153.535 299.401 153.935C299.301 154.135 299.201 154.535 299.301 154.935C299.501 155.435 300.201 155.635 300.701 155.435C301.601 155.035 301.501 153.535 300.401 153.335Z" fill="#FEFEFE"></path><path d="M296.9 155.935C296.7 155.935 296.3 156.035 296.2 156.335C296.1 156.535 296.1 156.835 296.1 157.035C296.2 157.435 296.7 157.535 297.1 157.435C297.8 157.235 297.7 156.135 296.9 155.935Z" fill="#FEFEFE"></path><path d="M247.2 153.535C255.7 148.935 265.4 147.335 275 147.335C265.5 141.235 255 135.235 244 136.735C232.3 138.335 222.5 149.435 222.6 161.335C222.6 166.235 224.2 171.135 226.8 175.335C228.8 173.135 230.5 170.435 231.7 168.535C235.8 162.135 240.5 157.135 247.2 153.535Z" fill="url(#paint18_linear_5952_25398)" stroke="black" stroke-miterlimit="10"></path><path d="M206.6 293.035C206.5 295.135 206.4 297.235 207.1 299.235C207.8 301.235 209.8 302.835 211.9 302.435C213.5 295.435 213.9 288.235 214.2 280.935C214.6 272.335 215.1 263.635 215.4 255.035C215.4 254.135 215.5 253.335 215 252.535C213.4 249.735 209.1 252.135 208 254.135C206.5 256.935 207.4 261.835 207.4 264.835C207.4 274.435 207.1 283.635 206.6 293.035Z" fill="url(#paint19_linear_5952_25398)" stroke="black" stroke-miterlimit="10"></path><path d="M169.6 323.735C169 323.735 209.9 330.535 210.5 330.535C211.7 330.335 212.6 331.935 212.8 333.135C214.4 340.035 212.3 347.735 207.4 352.935C202.6 358.135 195.1 360.735 188 359.735C182.8 359.035 178.1 356.435 173.7 353.535C168.9 350.335 164.1 346.635 161.4 341.435C158.7 336.235 158.4 329.435 162.1 325.035C162.6 324.435 163.3 323.835 164.1 323.835C164.5 324.135 170 323.535 169.6 323.735Z" fill="url(#paint20_linear_5952_25398)" stroke="black" stroke-miterlimit="10"></path><path d="M199.6 352.135C204.8 351.935 204.5 344.235 199.6 343.835C193.8 343.535 193.8 352.435 199.6 352.135Z" fill="url(#paint21_linear_5952_25398)" stroke="black" stroke-miterlimit="10"></path><path d="M193.101 251.835C198.001 258.135 206.101 262.235 214.101 261.835C222.101 261.435 229.901 256.635 233.401 249.335C235.901 244.235 236.101 238.435 236.001 232.835C236.001 230.935 235.901 229.035 235.001 227.435C233.601 224.935 230.901 223.835 228.201 222.835C220.901 220.335 213.401 218.735 205.701 218.135C198.501 217.635 187.901 218.635 186.301 227.235C185.101 235.035 188.401 245.835 193.101 251.835Z" fill="url(#paint22_linear_5952_25398)" stroke="black" stroke-miterlimit="10"></path><path d="M198.2 238.535C208.1 241.535 215.5 239.935 224.7 238.035C229 237.135 233.6 235.535 235.8 230.635C235.8 230.535 235.9 230.435 235.9 230.435C235.8 229.335 235.5 228.335 235 227.435C233.6 224.935 230.9 223.835 228.2 222.835C220.9 220.335 213.4 218.735 205.7 218.135C198.5 217.635 187.9 218.635 186.3 227.235C186.1 228.735 185.9 230.335 186.1 231.935C187.5 234.635 196.2 237.935 198.2 238.535Z" fill="url(#paint23_linear_5952_25398)" stroke="black" stroke-miterlimit="10"></path><path d="M170.601 264.535C172.201 263.135 174.101 262.235 175.901 261.235C185.501 256.035 193.301 248.135 202.001 241.435C206.601 237.835 213.201 242.535 211.001 247.935V248.035C209.401 251.835 206.201 254.835 202.601 257.035C199.001 259.235 195.301 261.135 192.001 263.535C189.801 265.135 187.601 267.835 188.901 270.335C189.401 271.335 190.401 272.035 191.401 272.335C193.501 272.935 195.601 272.335 197.601 271.635C203.401 269.535 209.001 266.935 214.401 264.135C216.501 263.035 218.701 261.835 221.101 261.335C224.201 260.635 227.601 261.135 229.701 263.835C230.401 264.835 230.801 266.135 230.601 267.435C230.101 270.635 226.901 271.735 224.101 272.635C217.701 274.735 211.501 277.535 205.801 281.135C204.901 281.635 204.401 282.635 204.701 283.635C205.101 285.035 206.401 285.035 207.701 284.835C216.201 283.735 223.901 276.435 232.401 278.135C233.501 278.335 234.701 279.035 234.601 280.135C234.601 280.535 234.401 281.035 234.101 281.235C233.601 282.135 233.001 282.935 232.101 283.535C227.401 287.835 221.201 288.635 215.801 291.035C214.601 291.635 213.201 292.635 213.501 294.035C213.701 295.035 214.901 295.535 215.801 295.735C220.601 296.735 225.601 294.635 230.401 293.735C231.401 293.635 232.401 293.635 233.401 293.935C236.901 295.135 236.401 298.535 234.601 300.335C233.501 301.435 231.901 302.235 230.301 302.635C224.401 304.735 218.301 306.235 212.101 307.035C211.201 307.135 210.201 307.235 209.601 307.935C208.201 309.035 208.601 311.135 208.601 312.835C208.701 316.135 207.201 319.335 204.901 321.635C208.901 323.135 210.601 328.335 209.101 332.235C207.601 336.235 203.901 339.035 199.801 340.135C190.801 342.735 181.401 338.535 173.501 333.435C169.701 330.935 165.701 327.835 164.401 323.535C163.701 321.235 163.801 318.635 163.901 316.135C164.301 306.135 165.101 296.035 164.901 285.835C164.701 279.235 164.901 269.535 170.601 264.535Z" fill="url(#paint24_linear_5952_25398)" stroke="black" stroke-miterlimit="10"></path><defs><linearGradient id="paint0_linear_5952_25398" x1="129.806" y1="393.591" x2="393.581" y2="129.816" gradientUnits="userSpaceOnUse"><stop stop-color="#115094"></stop><stop offset="0.9867" stop-color="#FF4E93"></stop></linearGradient><linearGradient id="paint1_linear_5952_25398" x1="55.5934" y1="279.174" x2="90.4745" y2="279.174" gradientUnits="userSpaceOnUse"><stop stop-color="#115094"></stop><stop offset="0.9867" stop-color="#0277FA"></stop></linearGradient><linearGradient id="paint2_linear_5952_25398" x1="401.699" y1="420.813" x2="378.207" y2="316.63" gradientUnits="userSpaceOnUse"><stop stop-color="#0277FA"></stop><stop offset="1" stop-color="#202729"></stop></linearGradient><linearGradient id="paint3_linear_5952_25398" x1="306.727" y1="50.2647" x2="258.727" y2="412.818" gradientUnits="userSpaceOnUse"><stop stop-color="#0277FA"></stop><stop offset="1" stop-color="#202729"></stop></linearGradient><linearGradient id="paint4_linear_5952_25398" x1="92.3506" y1="270.488" x2="175.074" y2="301.126" gradientUnits="userSpaceOnUse"><stop stop-color="#0277FA"></stop><stop offset="1" stop-color="#202729"></stop></linearGradient><linearGradient id="paint5_linear_5952_25398" x1="225.381" y1="385.507" x2="280.53" y2="287.464" gradientUnits="userSpaceOnUse"><stop stop-color="#0277FA"></stop><stop offset="1" stop-color="white"></stop></linearGradient><linearGradient id="paint6_linear_5952_25398" x1="283.175" y1="299.434" x2="289.088" y2="299.434" gradientUnits="userSpaceOnUse"><stop stop-color="#FF4E93"></stop><stop offset="1" stop-color="white"></stop></linearGradient><linearGradient id="paint7_linear_5952_25398" x1="286.151" y1="322.515" x2="291.535" y2="322.515" gradientUnits="userSpaceOnUse"><stop stop-color="#FF4E93"></stop><stop offset="1" stop-color="white"></stop></linearGradient><linearGradient id="paint8_linear_5952_25398" x1="311.718" y1="260.404" x2="247.037" y2="341.766" gradientUnits="userSpaceOnUse"><stop stop-color="#0277FA"></stop><stop offset="1" stop-color="#202729"></stop></linearGradient><linearGradient id="paint9_linear_5952_25398" x1="268.899" y1="226.364" x2="204.218" y2="307.726" gradientUnits="userSpaceOnUse"><stop stop-color="#0277FA"></stop><stop offset="1" stop-color="#202729"></stop></linearGradient><linearGradient id="paint10_linear_5952_25398" x1="288.298" y1="241.786" x2="223.617" y2="323.147" gradientUnits="userSpaceOnUse"><stop stop-color="#0277FA"></stop><stop offset="1" stop-color="#202729"></stop></linearGradient><linearGradient id="paint11_linear_5952_25398" x1="295.504" y1="137.328" x2="342.576" y2="137.328" gradientUnits="userSpaceOnUse"><stop stop-color="#0277FA"></stop><stop offset="1" stop-color="white"></stop></linearGradient><linearGradient id="paint12_linear_5952_25398" x1="219.366" y1="211.755" x2="336.046" y2="128.011" gradientUnits="userSpaceOnUse"><stop stop-color="#0277FA"></stop><stop offset="1" stop-color="white"></stop></linearGradient><linearGradient id="paint13_linear_5952_25398" x1="184.541" y1="294.454" x2="343.18" y2="140.922" gradientUnits="userSpaceOnUse"><stop stop-color="#0277FA"></stop><stop offset="1" stop-color="white"></stop></linearGradient><linearGradient id="paint14_linear_5952_25398" x1="290.789" y1="187.335" x2="353.958" y2="187.335" gradientUnits="userSpaceOnUse"><stop stop-color="#0277FA"></stop><stop offset="1" stop-color="white"></stop></linearGradient><linearGradient id="paint15_linear_5952_25398" x1="280.492" y1="208.575" x2="402.793" y2="208.575" gradientUnits="userSpaceOnUse"><stop stop-color="#0277FA"></stop><stop offset="1" stop-color="white"></stop></linearGradient><linearGradient id="paint16_linear_5952_25398" x1="215.602" y1="195.651" x2="93.5594" y2="259.481" gradientUnits="userSpaceOnUse"><stop stop-color="#0277FA"></stop><stop offset="1" stop-color="white"></stop></linearGradient><linearGradient id="paint17_linear_5952_25398" x1="279.23" y1="142.44" x2="321.752" y2="142.44" gradientUnits="userSpaceOnUse"><stop stop-color="#0277FA"></stop><stop offset="1" stop-color="white"></stop></linearGradient><linearGradient id="paint18_linear_5952_25398" x1="222.602" y1="155.864" x2="274.956" y2="155.864" gradientUnits="userSpaceOnUse"><stop stop-color="#0277FA"></stop><stop offset="1" stop-color="white"></stop></linearGradient><linearGradient id="paint19_linear_5952_25398" x1="211.195" y1="260.521" x2="206.665" y2="343.193" gradientUnits="userSpaceOnUse"><stop stop-color="#0277FA"></stop><stop offset="1" stop-color="white"></stop></linearGradient><linearGradient id="paint20_linear_5952_25398" x1="159.324" y1="341.813" x2="213.384" y2="341.813" gradientUnits="userSpaceOnUse"><stop stop-color="#0277FA"></stop><stop offset="1" stop-color="white"></stop></linearGradient><linearGradient id="paint21_linear_5952_25398" x1="195.287" y1="348.039" x2="203.437" y2="348.039" gradientUnits="userSpaceOnUse"><stop stop-color="#FF4E93"></stop><stop offset="1" stop-color="white"></stop></linearGradient><linearGradient id="paint22_linear_5952_25398" x1="206.72" y1="247.081" x2="228.993" y2="184.038" gradientUnits="userSpaceOnUse"><stop stop-color="#0277FA"></stop><stop offset="1" stop-color="white"></stop></linearGradient><linearGradient id="paint23_linear_5952_25398" x1="186.224" y1="229.162" x2="235.957" y2="229.162" gradientUnits="userSpaceOnUse"><stop stop-color="#0277FA"></stop><stop offset="1" stop-color="white"></stop></linearGradient><linearGradient id="paint24_linear_5952_25398" x1="163.741" y1="290.642" x2="235.798" y2="290.642" gradientUnits="userSpaceOnUse"><stop stop-color="#0277FA"></stop><stop offset="1" stop-color="white"></stop></linearGradient></defs></svg>