   <svg width="475" height="453" viewBox="0 0 475 453" fill="none" xmlns="http://www.w3.org/2000/svg"><circle opacity="0.1" cx="234.5" cy="226.5" r="226.5" fill="#FF4E93"></circle><path d="M192.975 397.581C276.757 397.581 344.675 329.662 344.675 245.881C344.675 162.099 276.757 94.1808 192.975 94.1808C109.194 94.1808 41.2754 162.099 41.2754 245.881C41.2754 329.662 109.194 397.581 192.975 397.581Z" fill="#202729"></path><path d="M329.975 305.681C320.875 326.581 307.175 344.981 290.275 359.781C292.075 339.581 288.375 318.781 284.475 303.881C287.575 301.081 290.975 298.481 295.075 296.981C302.475 294.181 312.975 293.681 318.675 296.481C324.475 299.281 329.975 305.681 329.975 305.681Z" fill="url(#paint0_linear_5937_25308)" stroke="black" stroke-width="0.8758" stroke-miterlimit="10"></path><path d="M290.273 359.781C276.573 371.681 260.773 381.181 243.373 387.581C226.973 393.681 209.273 396.981 190.773 396.981C165.273 396.981 141.273 390.681 120.273 379.581C122.873 378.481 125.273 377.081 127.473 375.181C137.973 366.281 140.173 350.781 138.773 337.081C138.273 331.881 137.273 326.581 134.573 322.181C131.273 316.781 125.873 313.181 120.573 309.781C114.473 305.881 108.373 301.881 102.273 297.981C102.873 296.181 103.473 294.281 104.173 292.481C127.973 223.781 190.473 215.581 190.473 215.581C248.973 212.281 270.073 262.881 279.173 286.381C280.573 290.081 282.673 296.181 284.673 303.781C288.373 318.781 292.073 339.581 290.273 359.781Z" fill="url(#paint1_linear_5937_25308)" stroke="black" stroke-width="0.8758" stroke-miterlimit="10"></path><path d="M127.474 375.181C125.274 376.981 122.874 378.481 120.274 379.581C109.774 374.081 99.9742 367.381 91.0742 359.581C68.0742 339.581 51.2742 312.681 43.5742 282.181C45.5742 281.081 47.4742 280.081 48.7742 279.181C53.2742 276.381 58.4742 273.681 63.6742 274.581C66.7742 275.081 69.4742 276.881 72.0742 278.581C82.0742 285.081 92.0742 291.481 102.174 297.981C108.274 301.881 114.374 305.881 120.474 309.781C125.774 313.181 131.274 316.781 134.474 322.181C137.174 326.581 138.174 331.881 138.674 337.081C140.074 350.781 137.974 366.281 127.474 375.181Z" fill="url(#paint2_linear_5937_25308)" stroke="black" stroke-width="0.9649" stroke-miterlimit="10"></path><path d="M192.975 397.581C276.757 397.581 344.675 329.662 344.675 245.881C344.675 162.099 276.757 94.1808 192.975 94.1808C109.194 94.1808 41.2754 162.099 41.2754 245.881C41.2754 329.662 109.194 397.581 192.975 397.581Z" stroke="url(#paint3_linear_5937_25308)" stroke-width="8" stroke-miterlimit="10" stroke-linecap="round"></path><path d="M323.274 260.081C325.274 254.881 326.474 249.481 326.974 243.881C327.074 242.881 327.074 241.681 326.474 240.881C325.874 240.081 324.774 239.881 323.774 239.881C319.574 239.981 316.174 243.481 314.174 247.181C309.474 255.681 309.074 266.181 304.174 274.581C302.774 276.981 301.074 279.281 299.574 281.681C296.774 286.281 294.874 291.481 293.074 296.581C292.474 298.281 291.874 299.981 291.674 301.781C291.074 306.481 290.874 314.681 293.674 318.481C297.074 323.081 300.274 323.981 304.874 324.881C308.274 325.581 312.074 325.181 316.674 322.681C323.474 319.081 319.974 314.381 326.574 310.681C329.874 308.881 337.574 308.081 349.674 305.081C358.974 302.681 366.874 299.081 374.474 292.781C380.974 287.381 387.174 280.281 386.674 276.181C385.974 270.581 380.774 273.181 378.474 274.181C376.174 275.181 374.274 276.681 372.174 278.081C368.174 280.981 363.874 283.581 359.474 285.781C357.674 286.681 355.274 287.281 354.074 285.781C353.274 284.781 353.574 283.181 354.374 282.181C355.174 281.181 356.374 280.581 357.574 279.881C365.974 275.281 373.274 268.781 378.774 260.881C379.774 259.381 380.774 257.781 380.974 255.981C381.174 254.181 380.374 252.181 378.674 251.481C377.174 250.981 375.474 251.581 374.074 252.381C368.474 255.581 364.374 260.781 359.774 265.281C355.174 269.781 349.474 273.981 343.074 274.081C342.374 273.181 342.774 271.781 343.574 270.981C344.374 270.181 345.474 269.781 346.574 269.281C355.774 265.481 363.674 258.481 368.574 249.881C369.774 247.881 370.774 245.581 370.874 243.281C370.974 240.981 369.974 238.381 367.874 237.281C365.974 236.281 363.574 236.681 361.674 237.681C359.774 238.781 358.274 240.381 356.874 241.981C350.974 248.481 344.974 254.781 338.774 260.981C335.674 264.081 332.574 267.081 329.474 270.081C327.374 272.081 323.974 275.481 321.574 271.881C319.274 268.781 322.074 263.481 323.274 260.081Z" fill="url(#paint4_linear_5937_25308)" stroke="black" stroke-miterlimit="10"></path><path d="M175.475 71.9808C184.975 86.4808 176.875 100.181 160.075 108.381C143.275 116.581 124.075 116.181 114.475 101.681C104.875 87.1808 111.875 70.9808 128.775 62.7808C145.675 54.5808 165.875 57.5808 175.475 71.9808Z" fill="url(#paint5_linear_5937_25308)" stroke="black" stroke-miterlimit="10"></path><path d="M172.274 69.4807C179.974 81.1807 171.274 93.1807 154.874 101.181C138.474 109.181 120.674 109.981 112.974 98.3807C105.274 86.7807 112.374 70.7807 128.774 62.8807C145.174 54.9807 164.574 57.7807 172.274 69.4807Z" fill="url(#paint6_linear_5937_25308)" stroke="black" stroke-miterlimit="10"></path><path d="M166.474 71.4808C172.374 80.3808 164.974 89.8808 151.474 96.4808C138.074 102.981 123.674 104.081 117.774 95.1808C111.874 86.2808 118.074 73.7808 131.474 67.2808C144.974 60.6808 160.574 62.5808 166.474 71.4808Z" fill="url(#paint7_linear_5937_25308)" stroke="black" stroke-miterlimit="10"></path><path d="M166.374 73.2808C171.674 81.3808 164.474 90.2808 151.674 96.4808C138.874 102.681 125.274 103.881 119.874 95.8808C114.474 87.8808 120.674 76.1808 133.474 69.9808C146.274 63.7808 160.974 65.2808 166.374 73.2808Z" fill="url(#paint8_linear_5937_25308)" stroke="black" stroke-miterlimit="10"></path><path d="M140.975 95.6808C129.575 97.5808 120.675 93.4808 121.275 86.6808L128.175 85.5808C127.775 90.1808 133.675 92.8808 141.375 91.5808L140.975 95.6808Z" fill="url(#paint9_linear_5937_25308)" stroke="black" stroke-miterlimit="10"></path><path d="M142.275 80.3808C139.575 80.7808 137.375 82.4808 137.175 83.9808L130.275 85.0808C130.575 81.2808 135.975 77.1808 142.575 76.0808L142.275 80.3808Z" fill="url(#paint10_linear_5937_25308)" stroke="black" stroke-miterlimit="10"></path><path d="M162.774 79.8808L155.874 80.9808C156.274 76.3808 150.374 73.6808 142.674 74.9808L142.974 70.8808C154.474 68.9808 163.374 73.0808 162.774 79.8808Z" fill="url(#paint11_linear_5937_25308)" stroke="black" stroke-miterlimit="10"></path><path d="M153.775 81.3809C153.475 85.1809 148.075 89.2809 141.475 90.3809L141.775 86.2809C144.475 85.8809 146.675 84.1809 146.875 82.5809L153.775 81.3809Z" fill="url(#paint12_linear_5937_25308)" stroke="black" stroke-miterlimit="10"></path><path d="M48.1746 141.781C44.0746 154.181 32.1746 155.881 19.4746 149.781C6.77456 143.681 -2.02544 132.181 1.97456 119.781C5.97456 107.381 18.8746 103.881 31.6746 109.981C44.3746 115.981 52.1746 129.381 48.1746 141.781Z" fill="url(#paint13_linear_5937_25308)" stroke="black" stroke-miterlimit="10"></path><path d="M48.1747 138.781C44.8747 148.781 33.6747 149.281 21.2747 143.381C8.87475 137.481 -0.0252528 127.381 3.27475 117.381C6.57475 107.381 19.2747 104.081 31.6747 109.981C44.0747 115.881 51.3747 128.781 48.1747 138.781Z" fill="url(#paint14_linear_5937_25308)" stroke="black" stroke-miterlimit="10"></path><path d="M44.2742 136.281C41.7742 143.881 32.6742 144.081 22.4742 139.181C12.2742 134.281 4.97416 126.281 7.47416 118.681C9.97416 111.081 20.2742 108.781 30.3742 113.681C40.4742 118.581 46.7742 128.581 44.2742 136.281Z" fill="url(#paint15_linear_5937_25308)" stroke="black" stroke-miterlimit="10"></path><path d="M43.0745 137.081C40.7745 143.981 32.1745 143.981 22.4745 139.281C12.7745 134.681 5.6745 127.181 7.9745 120.281C10.2745 113.381 19.9745 111.481 29.6745 116.181C39.3745 120.881 45.3745 130.181 43.0745 137.081Z" fill="url(#paint16_linear_5937_25308)" stroke="black" stroke-miterlimit="10"></path><path d="M18.0744 132.581C11.5744 126.781 9.87435 119.581 14.1744 116.681L18.0744 120.181C15.1744 122.081 16.3744 126.881 20.6744 130.781L18.0744 132.581Z" fill="url(#paint17_linear_5937_25308)" stroke="black" stroke-miterlimit="10"></path><path d="M27.6734 126.181C26.1734 124.781 24.0734 124.281 23.1734 124.881L19.2734 121.381C21.6734 119.781 26.5734 121.081 30.2734 124.481L27.6734 126.181Z" fill="url(#paint18_linear_5937_25308)" stroke="black" stroke-miterlimit="10"></path><path d="M37.5742 138.081L33.6742 134.581C36.5742 132.681 35.3742 127.881 31.0742 123.981L33.6742 122.281C40.0742 128.081 41.8742 135.181 37.5742 138.081Z" fill="url(#paint19_linear_5937_25308)" stroke="black" stroke-miterlimit="10"></path><path d="M32.4746 133.381C30.0746 134.981 25.1746 133.681 21.4746 130.281L24.0746 128.581C25.5746 129.981 27.6746 130.481 28.6746 129.881L32.4746 133.381Z" fill="url(#paint20_linear_5937_25308)" stroke="black" stroke-miterlimit="10"></path><path d="M430.675 226.881C442.775 252.181 429.375 274.381 404.175 286.481C378.975 298.581 351.375 295.981 339.275 270.681C327.175 245.381 339.175 218.781 364.375 206.681C389.675 194.581 418.575 201.581 430.675 226.881Z" fill="url(#paint21_linear_5937_25308)" stroke="black" stroke-miterlimit="10"></path><path d="M426.374 222.281C436.074 242.681 422.074 262.081 397.574 273.781C373.074 285.481 347.274 285.181 337.574 264.881C327.874 244.481 339.874 218.481 364.474 206.781C388.874 194.981 416.674 201.981 426.374 222.281Z" fill="url(#paint22_linear_5937_25308)" stroke="black" stroke-miterlimit="10"></path><path d="M417.775 224.981C425.175 240.481 413.375 255.781 393.275 265.481C373.175 275.181 352.275 275.481 344.875 259.881C337.475 244.381 347.775 223.981 367.875 214.281C388.075 204.681 410.375 209.481 417.775 224.981Z" fill="url(#paint23_linear_5937_25308)" stroke="black" stroke-miterlimit="10"></path><path d="M417.375 228.181C424.075 242.281 412.675 256.581 393.475 265.781C374.275 274.981 354.475 275.681 347.775 261.581C341.075 247.481 351.175 228.581 370.375 219.381C389.675 210.081 410.675 214.081 417.375 228.181Z" fill="url(#paint24_linear_5937_25308)" stroke="black" stroke-miterlimit="10"></path><path d="M378.274 263.181C361.674 265.181 349.374 257.481 350.974 245.981L360.974 244.781C359.874 252.481 368.074 257.581 379.274 256.281L378.274 263.181Z" fill="url(#paint25_linear_5937_25308)" stroke="black" stroke-miterlimit="10"></path><path d="M381.973 237.681C378.073 238.181 374.573 240.781 374.273 243.281L364.273 244.481C365.173 238.081 373.473 231.781 383.073 230.681L381.973 237.681Z" fill="url(#paint26_linear_5937_25308)" stroke="black" stroke-miterlimit="10"></path><path d="M411.573 238.781L401.573 239.981C402.673 232.281 394.473 227.181 383.273 228.481L384.273 221.581C400.873 219.681 413.173 227.381 411.573 238.781Z" fill="url(#paint27_linear_5937_25308)" stroke="black" stroke-miterlimit="10"></path><path d="M398.275 240.381C397.375 246.781 389.075 253.081 379.475 254.181L380.475 247.281C384.375 246.781 387.875 244.281 388.175 241.581L398.275 240.381Z" fill="url(#paint28_linear_5937_25308)" stroke="black" stroke-miterlimit="10"></path><path d="M236.675 43.5808C241.875 50.7808 238.975 58.4808 231.775 63.6808C224.575 68.8808 215.875 69.6808 210.575 62.4808C205.375 55.2808 207.575 46.2808 214.775 41.0808C221.975 35.8808 231.475 36.3808 236.675 43.5808Z" fill="url(#paint29_linear_5937_25308)" stroke="black" stroke-miterlimit="10"></path><path d="M235.075 42.3808C239.275 48.1808 235.975 55.0808 229.075 60.0808C222.175 65.0808 213.974 66.4808 209.874 60.6808C205.774 54.8808 207.974 46.0808 214.974 40.9808C221.974 35.8808 230.975 36.5808 235.075 42.3808Z" fill="url(#paint30_linear_5937_25308)" stroke="black" stroke-miterlimit="10"></path><path d="M232.576 43.7807C235.776 48.1807 232.976 53.6807 227.276 57.7807C221.576 61.8807 215.076 63.1807 211.876 58.7807C208.676 54.3807 210.676 47.4807 216.476 43.2807C222.176 39.0807 229.376 39.2807 232.576 43.7807Z" fill="url(#paint31_linear_5937_25308)" stroke="black" stroke-miterlimit="10"></path><path d="M232.675 44.7808C235.575 48.7808 232.875 53.8808 227.375 57.8808C221.875 61.8808 215.775 63.1808 212.875 59.1808C209.975 55.1808 212.075 48.6808 217.475 44.6808C222.875 40.6808 229.775 40.7808 232.675 44.7808Z" fill="url(#paint32_linear_5937_25308)" stroke="black" stroke-miterlimit="10"></path><path d="M222.475 57.8808C217.375 59.4808 213.075 57.7808 212.975 54.0808L216.075 53.0808C216.175 55.5808 219.075 56.6808 222.475 55.5808V57.8808Z" fill="url(#paint33_linear_5937_25308)" stroke="black" stroke-miterlimit="10"></path><path d="M222.174 49.7808C220.974 50.1808 220.074 51.1808 220.074 51.9808L216.974 52.9808C216.874 50.8808 219.074 48.4808 222.074 47.5808L222.174 49.7808Z" fill="url(#paint34_linear_5937_25308)" stroke="black" stroke-miterlimit="10"></path><path d="M231.475 48.3808L228.375 49.3808C228.275 46.8808 225.375 45.7808 221.975 46.8808L221.875 44.6808C226.975 43.0808 231.275 44.7808 231.475 48.3808Z" fill="url(#paint35_linear_5937_25308)" stroke="black" stroke-miterlimit="10"></path><path d="M227.374 49.6808C227.474 51.7808 225.274 54.1808 222.274 55.0808L222.174 52.8808C223.374 52.4808 224.274 51.4808 224.274 50.6808L227.374 49.6808Z" fill="url(#paint36_linear_5937_25308)" stroke="black" stroke-miterlimit="10"></path><path d="M253.375 22.8807C260.275 36.7807 267.475 50.5807 277.175 62.9807C280.175 66.7807 283.575 70.2808 287.275 73.3807C292.475 77.6807 298.275 77.1807 303.275 72.5807C307.475 68.6807 309.975 63.6807 312.075 58.5807C315.575 50.1807 321.575 38.3807 322.575 42.2807C324.975 52.0807 327.675 61.7807 332.175 70.7807C333.475 73.4807 335.175 76.0807 336.975 78.4807C340.275 82.5807 343.275 83.0807 347.875 80.3807C350.175 78.9807 352.375 77.3807 354.375 75.5807C362.775 68.1807 369.975 59.4807 376.875 50.6807C382.175 43.9807 383.775 53.1807 380.375 66.0807C378.575 72.8807 377.075 79.6807 377.075 86.7807C377.075 88.4807 377.175 90.2807 377.475 91.9807C378.375 97.9807 381.475 101.081 387.475 102.281C392.475 103.181 397.275 102.481 402.075 101.281C412.575 98.6807 425.275 97.5807 421.375 102.581C417.675 107.381 414.375 112.581 412.375 118.381C412.275 118.581 412.175 118.881 412.175 119.081C410.475 124.981 411.575 127.581 417.075 130.281C423.175 133.281 429.875 134.581 436.475 135.881C453.875 139.181 479.275 143.681 473.575 144.381C460.775 145.881 447.975 147.681 435.475 151.181C431.175 152.381 426.875 154.081 422.875 156.081C417.375 158.881 416.475 162.481 419.375 167.981C422.575 174.081 427.375 178.981 432.475 183.481C437.475 187.881 443.575 195.681 441.875 194.781C433.375 190.581 424.675 186.781 415.275 185.281C411.575 184.681 407.775 184.581 404.075 184.981C398.475 185.581 394.975 189.081 393.675 194.581C392.075 201.081 392.475 207.581 393.375 214.081C395.675 231.481 387.175 225.781 375.375 207.781C371.775 202.281 367.675 197.081 363.175 192.181C358.675 187.281 354.175 187.181 348.575 190.881C343.675 194.081 339.775 198.181 336.575 202.981C331.575 210.381 318.775 196.581 314.875 185.281C313.475 181.281 311.475 177.281 309.075 173.681C305.775 168.781 301.675 167.681 295.975 169.381C289.775 171.281 284.275 174.681 279.075 178.381C264.675 188.481 248.775 187.881 253.275 172.081C254.575 167.381 255.475 162.481 255.775 157.581C256.175 151.281 253.875 148.381 247.875 146.181C240.275 143.481 232.275 142.881 224.375 142.381C208.375 141.481 188.875 138.281 195.975 135.781C208.375 131.381 220.675 126.781 232.275 120.281C234.875 118.781 237.475 116.981 239.775 115.081C242.875 112.481 243.275 110.481 240.675 107.381C237.075 103.081 233.375 98.8807 229.175 95.3807C219.575 87.5807 207.075 74.0807 210.175 75.1807C220.475 78.9807 230.875 82.6807 241.875 84.1807C244.175 84.4807 246.575 84.5807 248.875 84.4807C254.075 84.1807 256.775 82.1807 257.675 77.0807C258.375 72.9807 258.675 68.6807 258.475 64.5807C257.875 52.7807 255.075 41.2807 251.975 29.8807C249.575 21.3807 250.275 16.5807 253.375 22.8807Z" fill="url(#paint37_linear_5937_25308)" stroke="black" stroke-miterlimit="10"></path><path d="M271.976 67.9807C276.576 76.7807 281.276 85.4807 287.576 93.2807C289.476 95.6807 291.776 97.8807 294.176 99.8807C297.576 102.581 301.276 102.381 304.376 99.5807C306.976 97.1807 308.576 94.0807 309.876 90.8807C311.976 85.6807 315.776 78.3807 316.376 80.7807C318.076 86.8807 319.776 92.9807 322.776 98.6807C323.676 100.381 324.676 102.081 325.976 103.581C328.076 106.181 330.076 106.481 332.976 104.881C334.476 103.981 335.876 102.981 337.076 101.881C342.376 97.2807 346.876 91.9807 351.176 86.5807C354.476 82.3807 355.576 88.2807 353.576 96.2807C352.476 100.481 351.676 104.781 351.676 109.181C351.676 110.281 351.776 111.381 351.976 112.481C352.676 116.281 354.576 118.281 358.476 118.981C361.676 119.581 364.776 119.181 367.776 118.481C374.476 116.981 382.476 116.381 380.076 119.481C377.776 122.481 375.676 125.681 374.476 129.281C374.476 129.481 374.376 129.581 374.376 129.781C373.376 133.481 374.076 135.081 377.576 136.781C381.476 138.681 385.776 139.581 389.976 140.481C401.076 142.681 417.376 145.781 413.776 146.181C405.576 146.981 397.476 147.981 389.576 150.081C386.776 150.781 384.076 151.781 381.576 152.981C378.076 154.681 377.576 156.981 379.476 160.381C381.576 164.281 384.676 167.381 387.976 170.181C391.276 172.981 395.176 177.881 394.076 177.281C388.576 174.581 383.076 172.081 376.976 171.081C374.676 170.681 372.176 170.581 369.876 170.781C366.376 171.081 364.176 173.181 363.376 176.681C362.476 180.681 362.776 184.781 363.376 188.881C364.976 199.781 359.476 196.181 351.776 184.781C349.476 181.281 346.776 177.981 343.876 174.981C340.976 171.881 338.076 171.781 334.576 173.981C331.476 175.881 329.076 178.481 327.076 181.381C323.976 185.981 315.676 177.181 313.076 170.081C312.176 167.581 310.776 165.081 309.276 162.781C307.076 159.681 304.476 158.981 300.876 159.981C296.876 161.081 293.476 163.181 290.176 165.381C281.076 171.581 270.976 170.981 273.676 161.181C274.476 158.281 274.976 155.181 275.076 152.181C275.276 148.281 273.776 146.381 269.976 144.981C265.076 143.181 259.976 142.781 254.976 142.381C244.776 141.681 232.276 139.481 236.776 137.981C244.676 135.281 252.476 132.581 259.776 128.681C261.476 127.781 263.076 126.681 264.476 125.481C266.476 123.881 266.676 122.581 264.976 120.681C262.676 117.981 260.276 115.281 257.476 113.081C251.276 108.081 243.176 99.4807 245.176 100.281C251.776 102.781 258.476 105.181 265.476 106.181C266.976 106.381 268.476 106.481 269.876 106.481C273.176 106.381 274.876 105.081 275.376 101.881C275.776 99.2807 275.976 96.6807 275.776 94.0807C275.276 86.6807 273.376 79.4807 271.276 72.2807C269.476 66.9807 269.876 63.9807 271.976 67.9807Z" fill="url(#paint38_linear_5937_25308)" stroke="black" stroke-miterlimit="10"></path><path d="M277.176 119.981L239.376 100.181C238.176 99.4807 237.676 97.9807 238.276 96.7807L242.676 88.3807C242.976 87.7807 243.476 87.3807 244.176 87.1807L264.576 80.6807C272.176 78.1807 277.676 76.0807 280.976 74.3807C284.376 72.6807 286.876 70.3807 288.476 67.2807C290.076 64.1807 290.376 61.5807 289.376 59.4807C288.476 57.3807 286.476 55.5807 283.576 53.9807C279.176 51.6807 274.176 49.5807 268.476 47.5807C267.076 47.0807 266.476 45.4807 267.076 44.1807L269.976 37.5807C270.476 36.4807 271.676 35.8807 272.776 36.0807C279.576 37.5807 286.076 39.8807 292.376 43.1807C306.276 50.4807 309.876 60.2807 303.376 72.7807C300.776 77.6807 297.576 81.3807 293.576 83.7807C289.576 86.2807 283.476 88.5807 275.276 90.7807L264.976 93.4807C262.676 94.0807 262.376 97.0807 264.476 98.1807L283.476 108.081C284.676 108.781 285.176 110.281 284.576 111.481L280.676 118.881C279.976 120.181 278.376 120.681 277.176 119.981ZM292.776 125.281L298.976 113.381C299.676 112.181 301.176 111.681 302.376 112.281L312.076 117.381C313.276 118.081 313.776 119.581 313.176 120.781L306.976 132.681C306.276 133.881 304.776 134.381 303.576 133.781L293.876 128.681C292.576 128.081 292.076 126.481 292.776 125.281ZM392.776 100.181L388.876 107.581C388.176 108.781 386.676 109.281 385.476 108.681L360.576 95.5807C359.476 94.9807 357.976 95.3807 357.276 96.3807L351.776 104.481C350.776 105.981 351.576 108.081 353.376 108.381C356.676 109.081 359.676 110.081 362.376 111.481C376.476 118.881 380.076 129.181 373.276 142.281C369.376 149.681 364.476 154.381 358.476 156.381C352.476 158.381 345.876 157.481 338.776 153.781C335.776 152.181 332.476 150.081 328.876 147.481C325.376 144.881 322.576 142.681 320.676 140.781L319.276 139.581C318.276 138.681 318.176 137.281 318.876 136.181L322.776 130.781C323.576 129.681 325.176 129.381 326.376 130.181C332.876 134.881 338.476 138.481 343.276 140.981C346.476 142.681 349.476 143.081 352.076 142.281C354.676 141.481 356.776 139.481 358.476 136.281C360.176 133.081 360.676 130.281 359.976 128.081C359.276 125.881 357.576 124.081 354.976 122.681C350.576 120.381 346.476 118.781 342.676 117.881L341.576 117.681C341.176 117.581 340.776 117.381 340.476 117.081L335.476 112.781C334.576 111.981 334.276 110.581 334.976 109.581L352.976 79.0807C353.676 77.8807 355.176 77.4807 356.376 78.0807L391.876 96.6807C392.976 97.3807 393.476 98.9807 392.776 100.181ZM397.776 120.081L406.776 124.781C407.576 125.181 408.176 126.081 408.176 127.081L408.076 140.081C408.076 142.181 410.376 143.381 412.076 142.181L422.876 134.681C423.676 134.181 424.676 134.081 425.476 134.481L434.376 139.081C436.076 139.981 436.176 142.481 434.576 143.481L412.776 157.281C411.976 157.781 411.576 158.581 411.576 159.481L412.276 186.281C412.376 188.181 410.276 189.481 408.576 188.581L399.576 183.881C398.776 183.481 398.176 182.581 398.176 181.681L398.076 168.681C398.076 166.681 395.776 165.481 394.076 166.581L383.476 173.981C382.676 174.481 381.676 174.581 380.876 174.181L371.876 169.481C370.176 168.581 370.076 166.181 371.676 165.081L393.476 150.481C394.176 149.981 394.576 149.181 394.576 148.281L394.076 122.281C394.076 120.481 396.076 119.181 397.776 120.081Z" fill="url(#paint39_linear_5937_25308)" stroke="black" stroke-miterlimit="10"></path><path d="M283.576 120.681L245.776 100.881C244.576 100.181 244.076 98.6807 244.676 97.4807L249.076 89.0807C249.376 88.4807 249.876 88.0807 250.576 87.8807L270.976 81.3807C278.576 78.8807 284.076 76.7807 287.376 75.0807C290.776 73.3807 293.276 71.0807 294.876 67.9807C296.476 64.8807 296.776 62.2807 295.776 60.1807C294.876 58.0807 292.876 56.2807 289.976 54.6807C285.576 52.3807 280.576 50.2807 274.876 48.2807C273.476 47.7807 272.876 46.1807 273.476 44.8807L276.376 38.2807C276.876 37.1807 278.076 36.5807 279.176 36.7807C285.976 38.2807 292.476 40.5807 298.776 43.8807C312.676 51.1807 316.276 60.9807 309.776 73.4807C307.176 78.3807 303.976 82.0807 299.976 84.4807C295.976 86.9807 289.876 89.2807 281.676 91.4807L271.276 94.1807C268.976 94.7807 268.676 97.7807 270.776 98.8807L289.776 108.781C290.976 109.481 291.476 110.981 290.876 112.181L286.976 119.581C286.376 120.881 284.876 121.381 283.576 120.681ZM299.176 125.981L305.376 114.081C306.076 112.881 307.576 112.381 308.776 112.981L318.476 118.081C319.676 118.781 320.176 120.281 319.576 121.481L313.476 133.481C312.776 134.681 311.276 135.181 310.076 134.581L300.376 129.481C298.976 128.781 298.576 127.181 299.176 125.981ZM399.276 100.881L395.376 108.281C394.676 109.481 393.176 109.981 391.976 109.381L367.076 96.2807C365.976 95.6807 364.476 96.0807 363.776 97.0807L358.276 105.181C357.276 106.681 358.076 108.781 359.876 109.081C363.176 109.781 366.176 110.781 368.876 112.181C382.976 119.581 386.576 129.881 379.776 142.981C375.876 150.381 370.976 155.081 364.976 157.081C358.976 159.081 352.376 158.181 345.276 154.481C342.276 152.881 338.976 150.781 335.376 148.181C331.876 145.581 329.076 143.381 327.176 141.481L325.776 140.281C324.776 139.381 324.676 137.981 325.376 136.881L329.276 131.481C330.076 130.381 331.676 130.081 332.876 130.881C339.376 135.581 344.976 139.181 349.776 141.681C352.976 143.381 355.976 143.781 358.576 142.981C361.176 142.181 363.276 140.181 364.976 136.981C366.676 133.781 367.176 130.981 366.476 128.781C365.776 126.581 364.076 124.781 361.476 123.381C357.076 121.081 352.976 119.481 349.176 118.581L348.076 118.381C347.676 118.281 347.276 118.081 346.976 117.781L341.976 113.481C341.076 112.681 340.776 111.281 341.476 110.281L359.476 79.7807C360.176 78.5807 361.676 78.1807 362.876 78.7807L398.176 97.4807C399.476 98.1807 399.976 99.6807 399.276 100.881ZM404.276 120.781L413.276 125.481C414.076 125.881 414.676 126.781 414.676 127.781L414.576 140.781C414.576 142.881 416.876 144.081 418.576 142.881L429.376 135.381C430.176 134.881 431.176 134.781 431.976 135.181L440.876 139.781C442.576 140.681 442.676 143.181 441.076 144.181L419.276 157.981C418.476 158.481 418.076 159.281 418.076 160.181L418.776 186.981C418.876 188.881 416.776 190.181 415.076 189.281L406.076 184.581C405.276 184.181 404.676 183.281 404.676 182.381L404.576 169.381C404.576 167.381 402.276 166.181 400.576 167.281L389.976 174.681C389.176 175.181 388.176 175.281 387.376 174.881L378.376 170.181C376.676 169.281 376.576 166.881 378.176 165.781L399.976 151.181C400.676 150.681 401.076 149.881 401.076 148.981L400.576 122.981C400.476 121.181 402.576 119.881 404.276 120.781Z" fill="url(#paint40_linear_5937_25308)" stroke="black" stroke-miterlimit="10"></path><path d="M203.273 178.181C208.473 165.481 218.473 152.481 231.873 141.381C235.973 137.981 240.473 134.681 245.773 132.781C256.873 128.881 266.473 132.881 272.473 137.781C290.873 152.781 294.773 177.581 282.473 202.481C279.073 209.281 276.273 213.881 267.073 219.681" fill="url(#paint41_linear_5937_25308)"></path><path d="M203.273 178.181C208.473 165.481 218.473 152.481 231.873 141.381C235.973 137.981 240.473 134.681 245.773 132.781C256.873 128.881 266.473 132.881 272.473 137.781C290.873 152.781 294.773 177.581 282.473 202.481C279.073 209.281 276.273 213.881 267.073 219.681" stroke="black" stroke-miterlimit="10"></path><path d="M176.074 270.481C175.274 271.981 175.474 274.481 176.274 276.381C177.074 278.281 178.374 279.581 179.574 280.781C188.774 289.581 199.574 291.581 209.774 291.881C217.974 292.081 226.274 291.181 232.874 285.281C235.574 282.881 238.074 278.181 236.474 273.381L176.074 270.481Z" fill="url(#paint42_linear_5937_25308)"></path><path d="M123.275 257.781C110.875 217.381 113.175 184.581 116.675 173.381C119.775 163.481 127.575 155.781 137.475 152.681C169.575 142.481 204.875 144.181 235.575 159.181C240.675 161.681 245.475 164.681 249.775 168.381C253.775 171.781 257.575 175.981 259.275 180.981C261.775 188.581 259.075 196.781 256.475 204.281C268.175 216.481 279.275 229.081 289.775 242.281C291.175 244.081 292.675 245.981 293.075 248.281C293.375 250.081 292.975 251.981 292.575 253.781C290.975 260.781 288.875 267.981 284.075 273.181C277.975 279.781 268.575 282.081 259.575 283.181C246.175 284.881 232.575 284.681 219.275 282.681C212.875 281.681 206.475 280.281 200.175 278.881C193.575 277.481 187.075 275.981 180.475 274.581C174.375 273.281 164.675 264.981 160.275 256.481L123.275 257.781Z" fill="url(#paint43_linear_5937_25308)" stroke="black" stroke-miterlimit="10"></path><path d="M293.275 248.181C292.875 245.881 291.375 243.981 289.975 242.181C279.475 229.081 268.275 216.381 256.675 204.181C259.275 196.681 261.975 188.481 259.475 180.881C258.575 178.181 256.575 183.781 254.775 181.581C239.275 183.381 234.375 190.481 220.375 197.381C204.075 205.481 179.775 206.381 167.875 220.181C167.275 220.881 166.675 221.681 166.575 222.581C166.475 223.781 167.275 224.781 167.975 225.681C174.675 233.381 183.275 239.481 192.775 243.181C190.875 251.781 192.675 261.081 197.375 268.381C201.475 274.781 207.975 279.581 215.175 281.981C216.575 282.181 217.975 282.481 219.375 282.681C232.675 284.681 246.375 284.881 259.675 283.181C268.575 282.081 277.975 279.781 284.175 273.181C289.075 267.981 291.175 260.781 292.675 253.781C293.175 251.881 293.575 250.081 293.275 248.181Z" fill="url(#paint44_linear_5937_25308)" stroke="black" stroke-miterlimit="10"></path><path d="M175.774 273.281C175.874 274.381 175.474 274.381 176.274 276.181C177.074 278.081 178.374 279.381 179.574 280.581C188.774 289.381 199.574 291.381 209.774 291.681C217.974 291.881 226.274 290.981 232.874 285.081C233.274 284.781 233.574 284.381 233.974 283.981" stroke="black" stroke-width="1.0828" stroke-miterlimit="10"></path><path d="M148.774 245.681C147.974 248.281 145.874 250.381 143.474 250.881C141.374 251.281 139.174 250.581 137.574 248.981C135.974 247.381 135.074 244.881 135.174 242.481C135.274 240.081 136.374 237.581 138.174 236.281C141.674 233.781 145.974 234.981 145.974 234.981C141.774 218.581 129.074 205.581 114.474 202.781C99.8741 199.981 81.1741 202.781 73.4741 217.381C70.0741 223.781 67.6741 231.281 68.9741 239.981C70.4741 249.981 75.8741 263.581 82.2741 270.581C99.5741 289.581 117.274 292.681 138.874 287.881C148.574 285.781 157.074 279.881 162.974 275.281C167.474 271.781 170.674 266.281 170.774 259.981" fill="url(#paint45_linear_5937_25308)"></path><path d="M148.774 245.681C147.974 248.281 145.874 250.381 143.474 250.881C141.374 251.281 139.174 250.581 137.574 248.981C135.974 247.381 135.074 244.881 135.174 242.481C135.274 240.081 136.374 237.581 138.174 236.281C141.674 233.781 145.974 234.981 145.974 234.981C141.774 218.581 129.074 205.581 114.474 202.781C99.8741 199.981 81.1741 202.781 73.4741 217.381C70.0741 223.781 67.6741 231.281 68.9741 239.981C70.4741 249.981 75.8741 263.581 82.2741 270.581C99.5741 289.581 117.274 292.681 138.874 287.881C148.574 285.781 157.074 279.881 162.974 275.281C167.474 271.781 170.674 266.281 170.774 259.981" stroke="black" stroke-miterlimit="10"></path><path d="M247.074 224.781C247.274 224.581 247.574 224.381 247.674 224.081C247.974 223.481 247.774 222.581 247.374 221.981C245.374 219.181 231.674 220.181 229.974 223.981C227.574 229.181 232.674 230.881 235.474 230.381C239.674 229.781 243.674 227.681 247.074 224.781Z" fill="url(#paint46_linear_5937_25308)" stroke="black" stroke-miterlimit="10"></path><path d="M181.174 231.381C197.074 234.481 214.374 229.581 226.274 218.581" stroke="black" stroke-miterlimit="10" stroke-linecap="round" stroke-linejoin="round"></path><path d="M233.074 216.681C238.074 217.681 254.574 214.081 258.474 210.681" stroke="black" stroke-miterlimit="10" stroke-linecap="round" stroke-linejoin="round"></path><path d="M171.375 269.681C171.275 274.481 173.375 279.581 175.875 283.281C178.375 286.881 181.475 289.281 184.575 291.281C202.375 302.581 222.275 302.281 237.675 290.481C237.675 290.481 241.075 287.481 242.375 284.381" stroke="black" stroke-width="1.0828" stroke-miterlimit="10"></path><path d="M255.073 205.181C256.473 204.581 257.873 203.681 258.973 202.381C259.873 201.481 260.673 200.481 260.973 199.781C262.673 196.781 264.073 193.281 264.773 189.081C265.573 184.081 265.073 177.881 262.773 173.481C260.373 168.881 259.573 167.681 255.173 164.381C252.273 162.181 247.873 160.881 242.573 162.981C236.073 165.481 225.473 170.781 218.973 182.281C214.373 190.481 216.073 197.181 215.373 200.081C214.873 202.381 215.573 205.381 216.673 207.281C217.873 209.181 219.373 210.281 220.873 210.881C222.973 211.781 225.073 211.981 227.173 212.181C236.173 212.581 250.173 207.181 255.073 205.181Z" fill="white" stroke="black" stroke-width="1.0282" stroke-miterlimit="10"></path><path d="M236.573 181.081C233.173 180.481 229.873 182.881 228.273 185.881C226.973 188.281 226.673 191.181 227.673 193.681C229.273 197.581 234.473 199.481 238.473 197.881C246.873 194.381 245.573 182.581 236.573 181.081Z" fill="black"></path><path d="M233.072 183.181C231.972 182.981 230.872 183.781 230.372 184.781C229.972 185.581 229.872 186.481 230.172 187.281C230.672 188.581 232.372 189.181 233.572 188.581C236.372 187.481 235.972 183.681 233.072 183.181Z" fill="#FEFEFE"></path><path d="M238.974 186.981C238.174 186.881 237.474 187.381 237.074 188.081C236.774 188.581 236.674 189.281 236.974 189.881C237.374 190.781 238.474 191.181 239.374 190.781C241.274 189.881 240.974 187.281 238.974 186.981Z" fill="#FEFEFE"></path><path d="M232.574 191.881C231.974 191.781 231.474 192.181 231.174 192.681C230.974 193.081 230.874 193.581 231.074 193.981C231.374 194.681 232.174 194.981 232.874 194.681C234.274 194.181 234.074 192.181 232.574 191.881Z" fill="#FEFEFE"></path><path d="M226.473 206.181C228.573 199.781 226.373 192.481 221.773 187.481C217.273 182.481 210.673 179.481 203.873 178.281C195.573 176.781 186.873 177.681 179.073 180.881C171.773 183.881 165.273 189.081 161.973 196.081C158.673 203.081 159.073 211.981 164.073 217.881C170.973 226.081 187.973 230.581 198.473 228.181C208.973 225.881 223.173 216.481 226.473 206.181Z" fill="white" stroke="black" stroke-width="1.0478" stroke-miterlimit="10"></path><path d="M205.573 191.581C202.173 190.981 198.873 193.381 197.273 196.381C195.973 198.781 195.673 201.681 196.673 204.181C198.273 208.081 203.473 209.981 207.473 208.381C215.873 204.981 214.673 193.081 205.573 191.581Z" fill="black"></path><path d="M202.174 193.681C201.074 193.481 199.974 194.281 199.474 195.281C199.074 196.081 198.974 196.981 199.274 197.781C199.774 199.081 201.474 199.681 202.674 199.081C205.474 197.981 205.074 194.181 202.174 193.681Z" fill="#FEFEFE"></path><path d="M207.974 197.481C207.174 197.381 206.474 197.881 206.074 198.581C205.774 199.081 205.674 199.781 205.974 200.381C206.374 201.281 207.474 201.681 208.374 201.281C210.374 200.481 210.074 197.781 207.974 197.481Z" fill="#FEFEFE"></path><path d="M201.574 202.481C200.974 202.381 200.474 202.781 200.174 203.281C199.974 203.681 199.874 204.181 200.074 204.581C200.374 205.281 201.174 205.581 201.874 205.281C203.374 204.681 203.074 202.681 201.574 202.481Z" fill="#FEFEFE"></path><path d="M287.675 224.281C299.675 209.581 309.775 236.981 293.975 253.981C278.175 270.981 238.175 281.081 214.075 269.481C189.975 257.881 202.075 243.081 217.275 246.681C259.975 256.581 275.875 238.681 287.675 224.281Z" fill="url(#paint47_linear_5937_25308)" stroke="black" stroke-miterlimit="10" stroke-linecap="round" stroke-linejoin="round"></path><path d="M214.074 258.581C214.074 258.581 269.574 284.881 301.474 228.081" stroke="black" stroke-width="1.0828" stroke-miterlimit="10" stroke-linecap="round" stroke-linejoin="round"></path><path d="M67.9754 244.181C68.0754 238.781 68.7754 233.381 70.1754 228.181C70.4754 227.181 70.7754 226.181 71.5754 225.581C72.3754 225.081 73.3754 225.181 74.1754 225.481C77.7754 226.781 79.4754 231.081 79.9754 235.181C81.1754 244.481 78.0754 254.181 79.3755 263.481C79.7755 266.181 80.4754 268.781 80.9754 271.381C81.8755 276.481 91.2754 281.981 91.5754 292.281C92.0754 310.881 75.1754 315.281 65.4754 312.981C60.1754 311.781 55.9754 307.581 52.8754 303.981C48.3754 298.581 48.0754 295.681 43.6754 290.281C41.4754 287.581 39.8754 284.181 30.6754 277.681C23.5754 272.681 18.0754 266.881 13.6754 258.781C9.97545 251.781 6.97545 243.381 8.77545 239.781C11.2754 234.781 14.7754 238.881 16.3754 240.481C17.9754 242.081 19.1754 244.081 20.3754 245.981C22.8754 249.881 25.5754 253.581 28.6754 256.881C29.8754 258.181 31.7754 259.581 33.2754 258.481C34.2754 257.781 34.5754 256.281 34.1754 255.081C33.7754 253.881 32.9754 252.981 32.2754 252.081C26.6754 245.281 22.5754 237.081 20.5754 228.181C20.1754 226.481 19.8754 224.681 20.2754 222.981C20.6754 221.281 22.0754 219.681 23.7754 219.581C25.2754 219.581 26.3754 220.681 27.3754 221.781C31.0754 226.381 32.8754 232.481 35.2754 238.081C37.6754 243.681 41.1754 249.181 46.5754 251.281C47.4754 250.681 47.5754 249.281 47.1754 248.281C46.7754 247.281 45.9754 246.581 45.1754 245.781C38.6754 239.481 34.2754 230.681 32.9754 221.181C32.6754 218.981 32.5754 216.581 33.2754 214.381C33.9754 212.181 35.6754 210.181 37.7754 209.781C39.7754 209.481 41.6754 210.581 42.8754 212.081C44.0754 213.581 44.8754 215.581 45.5754 217.581C48.3754 225.281 51.3754 232.981 54.5754 240.581C56.1754 244.381 57.7754 248.081 59.4754 251.781C60.5754 254.181 62.3754 258.481 65.5754 255.881C68.5754 253.381 67.9754 247.681 67.9754 244.181Z" fill="url(#paint48_linear_5937_25308)" stroke="black" stroke-miterlimit="10"></path><path d="M106.274 237.881C103.974 260.181 85.6739 269.681 63.3739 267.481C41.1739 265.181 23.3739 251.981 25.7739 229.681C28.1739 207.381 47.2739 194.281 69.5739 196.581C91.7739 198.781 108.674 215.581 106.274 237.881Z" fill="url(#paint49_linear_5937_25308)" stroke="black" stroke-miterlimit="10"></path><path d="M105.274 232.881C103.374 250.781 85.7739 258.181 64.1739 255.981C42.5739 253.781 25.1739 242.781 26.9739 224.881C28.8739 206.981 47.8739 194.281 69.4739 196.481C91.1739 198.681 107.174 214.981 105.274 232.881Z" fill="url(#paint50_linear_5937_25308)" stroke="black" stroke-miterlimit="10"></path><path d="M98.2746 231.181C96.8746 244.881 82.4746 250.381 64.7746 248.581C47.0746 246.781 32.6746 238.281 34.0746 224.681C35.4746 210.981 51.0746 201.381 68.7746 203.281C86.5746 204.981 99.7746 217.581 98.2746 231.181Z" fill="url(#paint51_linear_5937_25308)" stroke="black" stroke-miterlimit="10"></path><path d="M96.7736 233.181C95.4736 245.581 81.7736 250.581 64.8736 248.881C47.9736 247.181 34.1736 239.381 35.4736 226.981C36.7736 214.581 51.5736 205.881 68.4736 207.681C85.3736 209.281 98.0736 220.781 96.7736 233.181Z" fill="url(#paint52_linear_5937_25308)" stroke="black" stroke-miterlimit="10"></path><path d="M55.4738 240.781C43.2738 235.181 38.1738 224.781 43.9738 217.681L51.2738 220.981C47.3738 225.781 50.7738 232.681 58.9738 236.381L55.4738 240.781Z" fill="url(#paint53_linear_5937_25308)" stroke="black" stroke-miterlimit="10"></path><path d="M68.6734 224.881C65.8734 223.581 62.3734 223.881 61.0734 225.481L53.7734 222.181C57.0734 218.181 65.2734 217.381 72.2734 220.581L68.6734 224.881Z" fill="url(#paint54_linear_5937_25308)" stroke="black" stroke-miterlimit="10"></path><path d="M88.2734 237.981L80.9734 234.681C84.8734 229.881 81.4734 222.981 73.2734 219.281L76.7734 214.981C88.9734 220.481 94.1734 230.881 88.2734 237.981Z" fill="url(#paint55_linear_5937_25308)" stroke="black" stroke-miterlimit="10"></path><path d="M78.6738 233.581C75.3738 237.581 67.1738 238.381 60.1738 235.181L63.6738 230.881C66.4738 232.181 69.9738 231.881 71.3738 230.181L78.6738 233.581Z" fill="url(#paint56_linear_5937_25308)" stroke="black" stroke-miterlimit="10"></path><defs><linearGradient id="paint0_linear_5937_25308" x1="282.961" y1="356.333" x2="312.554" y2="293.525" gradientUnits="userSpaceOnUse"><stop stop-color="#0277FA"></stop><stop offset="1" stop-color="#202729"></stop></linearGradient><linearGradient id="paint1_linear_5937_25308" x1="162.152" y1="399.49" x2="242.51" y2="228.933" gradientUnits="userSpaceOnUse"><stop stop-color="#0277FA"></stop><stop offset="1" stop-color="#202729"></stop></linearGradient><linearGradient id="paint2_linear_5937_25308" x1="73.3769" y1="357.497" x2="103.764" y2="293.003" gradientUnits="userSpaceOnUse"><stop stop-color="#0277FA"></stop><stop offset="1" stop-color="#202729"></stop></linearGradient><linearGradient id="paint3_linear_5937_25308" x1="37.2224" y1="245.842" x2="348.687" y2="245.842" gradientUnits="userSpaceOnUse"><stop stop-color="#115094"></stop><stop offset="0.9867" stop-color="#FF4E93"></stop></linearGradient><linearGradient id="paint4_linear_5937_25308" x1="291.383" y1="281.201" x2="386.893" y2="281.201" gradientUnits="userSpaceOnUse"><stop stop-color="#0277FA"></stop><stop offset="1" stop-color="white"></stop></linearGradient><linearGradient id="paint5_linear_5937_25308" x1="119.189" y1="102.568" x2="213.884" y2="38.9638" gradientUnits="userSpaceOnUse"><stop stop-color="#FF4E93"></stop><stop offset="1" stop-color="white"></stop></linearGradient><linearGradient id="paint6_linear_5937_25308" x1="65.2439" y1="142.947" x2="160.527" y2="67.3827" gradientUnits="userSpaceOnUse"><stop stop-color="#FF4E93"></stop><stop offset="1" stop-color="white"></stop></linearGradient><linearGradient id="paint7_linear_5937_25308" x1="126.058" y1="82.9729" x2="210.066" y2="79.6847" gradientUnits="userSpaceOnUse"><stop stop-color="#FF4E93"></stop><stop offset="1" stop-color="white"></stop></linearGradient><linearGradient id="paint8_linear_5937_25308" x1="127.979" y1="84.662" x2="207.417" y2="83.1671" gradientUnits="userSpaceOnUse"><stop stop-color="#FF4E93"></stop><stop offset="1" stop-color="white"></stop></linearGradient><linearGradient id="paint9_linear_5937_25308" x1="121.264" y1="116.501" x2="128.247" y2="98.5808" gradientUnits="userSpaceOnUse"><stop stop-color="#FF4E93"></stop><stop offset="1" stop-color="white"></stop></linearGradient><linearGradient id="paint10_linear_5937_25308" x1="122.285" y1="118.501" x2="129.613" y2="99.6966" gradientUnits="userSpaceOnUse"><stop stop-color="#FF4E93"></stop><stop offset="1" stop-color="white"></stop></linearGradient><linearGradient id="paint11_linear_5937_25308" x1="135.348" y1="120.502" x2="142.331" y2="102.582" gradientUnits="userSpaceOnUse"><stop stop-color="#FF4E93"></stop><stop offset="1" stop-color="white"></stop></linearGradient><linearGradient id="paint12_linear_5937_25308" x1="132.981" y1="121.989" x2="140.309" y2="103.185" gradientUnits="userSpaceOnUse"><stop stop-color="#FF4E93"></stop><stop offset="1" stop-color="white"></stop></linearGradient><linearGradient id="paint13_linear_5937_25308" x1="3.80168" y1="122.877" x2="85.75" y2="148.888" gradientUnits="userSpaceOnUse"><stop stop-color="#0277FA"></stop><stop offset="1" stop-color="white"></stop></linearGradient><linearGradient id="paint14_linear_5937_25308" x1="-45.3267" y1="110.005" x2="43.9521" y2="130.751" gradientUnits="userSpaceOnUse"><stop stop-color="#0277FA"></stop><stop offset="1" stop-color="white"></stop></linearGradient><linearGradient id="paint15_linear_5937_25308" x1="18.583" y1="117.735" x2="59.94" y2="165.744" gradientUnits="userSpaceOnUse"><stop stop-color="#0277FA"></stop><stop offset="1" stop-color="white"></stop></linearGradient><linearGradient id="paint16_linear_5937_25308" x1="18.5268" y1="119.831" x2="56.6863" y2="165.988" gradientUnits="userSpaceOnUse"><stop stop-color="#0277FA"></stop><stop offset="1" stop-color="white"></stop></linearGradient><linearGradient id="paint17_linear_5937_25308" x1="-3.62059" y1="130.908" x2="10.2269" y2="126.618" gradientUnits="userSpaceOnUse"><stop stop-color="#0277FA"></stop><stop offset="1" stop-color="white"></stop></linearGradient><linearGradient id="paint18_linear_5937_25308" x1="-4.32229" y1="132.448" x2="10.2082" y2="127.947" gradientUnits="userSpaceOnUse"><stop stop-color="#0277FA"></stop><stop offset="1" stop-color="white"></stop></linearGradient><linearGradient id="paint19_linear_5937_25308" x1="0.62773" y1="141.093" x2="14.4753" y2="136.803" gradientUnits="userSpaceOnUse"><stop stop-color="#0277FA"></stop><stop offset="1" stop-color="white"></stop></linearGradient><linearGradient id="paint20_linear_5937_25308" x1="-1.35923" y1="140.394" x2="13.171" y2="135.893" gradientUnits="userSpaceOnUse"><stop stop-color="#0277FA"></stop><stop offset="1" stop-color="white"></stop></linearGradient><linearGradient id="paint21_linear_5937_25308" x1="344.507" y1="269.504" x2="493.593" y2="183.738" gradientUnits="userSpaceOnUse"><stop stop-color="#FF4E93"></stop><stop offset="1" stop-color="white"></stop></linearGradient><linearGradient id="paint22_linear_5937_25308" x1="258.239" y1="324.633" x2="410.698" y2="220.09" gradientUnits="userSpaceOnUse"><stop stop-color="#FF4E93"></stop><stop offset="1" stop-color="white"></stop></linearGradient><linearGradient id="paint23_linear_5937_25308" x1="358.218" y1="240.208" x2="479.738" y2="243.891" gradientUnits="userSpaceOnUse"><stop stop-color="#FF4E93"></stop><stop offset="1" stop-color="white"></stop></linearGradient><linearGradient id="paint24_linear_5937_25308" x1="360.793" y1="243.173" x2="475.475" y2="248.981" gradientUnits="userSpaceOnUse"><stop stop-color="#FF4E93"></stop><stop offset="1" stop-color="white"></stop></linearGradient><linearGradient id="paint25_linear_5937_25308" x1="345.232" y1="295.823" x2="359.039" y2="266.574" gradientUnits="userSpaceOnUse"><stop stop-color="#FF4E93"></stop><stop offset="1" stop-color="white"></stop></linearGradient><linearGradient id="paint26_linear_5937_25308" x1="346.722" y1="296.464" x2="360.514" y2="267.247" gradientUnits="userSpaceOnUse"><stop stop-color="#FF4E93"></stop><stop offset="1" stop-color="white"></stop></linearGradient><linearGradient id="paint27_linear_5937_25308" x1="362.997" y1="304.266" x2="376.804" y2="275.016" gradientUnits="userSpaceOnUse"><stop stop-color="#FF4E93"></stop><stop offset="1" stop-color="white"></stop></linearGradient><linearGradient id="paint28_linear_5937_25308" x1="361.586" y1="303.506" x2="375.378" y2="274.289" gradientUnits="userSpaceOnUse"><stop stop-color="#FF4E93"></stop><stop offset="1" stop-color="white"></stop></linearGradient><linearGradient id="paint29_linear_5937_25308" x1="212.241" y1="61.7969" x2="253.872" y2="26.5158" gradientUnits="userSpaceOnUse"><stop stop-color="#FF4E93"></stop><stop offset="1" stop-color="white"></stop></linearGradient><linearGradient id="paint30_linear_5937_25308" x1="188.465" y1="83.9287" x2="230.076" y2="42.5949" gradientUnits="userSpaceOnUse"><stop stop-color="#FF4E93"></stop><stop offset="1" stop-color="white"></stop></linearGradient><linearGradient id="paint31_linear_5937_25308" x1="214.848" y1="51.8707" x2="252.984" y2="46.0803" gradientUnits="userSpaceOnUse"><stop stop-color="#FF4E93"></stop><stop offset="1" stop-color="white"></stop></linearGradient><linearGradient id="paint32_linear_5937_25308" x1="215.815" y1="52.6919" x2="251.935" y2="47.9556" gradientUnits="userSpaceOnUse"><stop stop-color="#FF4E93"></stop><stop offset="1" stop-color="white"></stop></linearGradient><linearGradient id="paint33_linear_5937_25308" x1="214.06" y1="70.0852" x2="216.699" y2="60.169" gradientUnits="userSpaceOnUse"><stop stop-color="#FF4E93"></stop><stop offset="1" stop-color="white"></stop></linearGradient><linearGradient id="paint34_linear_5937_25308" x1="214.561" y1="70.2001" x2="217.197" y2="60.295" gradientUnits="userSpaceOnUse"><stop stop-color="#FF4E93"></stop><stop offset="1" stop-color="white"></stop></linearGradient><linearGradient id="paint35_linear_5937_25308" x1="220.087" y1="71.7054" x2="222.725" y2="61.7893" gradientUnits="userSpaceOnUse"><stop stop-color="#FF4E93"></stop><stop offset="1" stop-color="white"></stop></linearGradient><linearGradient id="paint36_linear_5937_25308" x1="219.601" y1="71.5488" x2="222.237" y2="61.6437" gradientUnits="userSpaceOnUse"><stop stop-color="#FF4E93"></stop><stop offset="1" stop-color="white"></stop></linearGradient><linearGradient id="paint37_linear_5937_25308" x1="284.525" y1="254.404" x2="443.421" y2="-145.874" gradientUnits="userSpaceOnUse"><stop stop-color="#0277FA"></stop><stop offset="1" stop-color="white"></stop></linearGradient><linearGradient id="paint38_linear_5937_25308" x1="318.876" y1="149.806" x2="418.498" y2="-97.9153" gradientUnits="userSpaceOnUse"><stop stop-color="#FF4E93"></stop><stop offset="1" stop-color="white"></stop></linearGradient><linearGradient id="paint39_linear_5937_25308" x1="327.36" y1="140.62" x2="401.755" y2="-23.9743" gradientUnits="userSpaceOnUse"><stop stop-color="#0277FA"></stop><stop offset="1" stop-color="white"></stop></linearGradient><linearGradient id="paint40_linear_5937_25308" x1="224.555" y1="237.534" x2="345.459" y2="115.198" gradientUnits="userSpaceOnUse"><stop stop-color="#FF4E93"></stop><stop offset="1" stop-color="white"></stop></linearGradient><linearGradient id="paint41_linear_5937_25308" x1="256.34" y1="176.053" x2="320.622" y2="127.014" gradientUnits="userSpaceOnUse"><stop stop-color="#0277FA"></stop><stop offset="1" stop-color="white"></stop></linearGradient><linearGradient id="paint42_linear_5937_25308" x1="206.043" y1="277.38" x2="214.494" y2="177.437" gradientUnits="userSpaceOnUse"><stop stop-color="#0277FA"></stop><stop offset="1" stop-color="white"></stop></linearGradient><linearGradient id="paint43_linear_5937_25308" x1="137.485" y1="264" x2="492.61" y2="13.5202" gradientUnits="userSpaceOnUse"><stop stop-color="#0277FA"></stop><stop offset="1" stop-color="white"></stop></linearGradient><linearGradient id="paint44_linear_5937_25308" x1="24.2487" y1="363.768" x2="303.661" y2="201.107" gradientUnits="userSpaceOnUse"><stop stop-color="#0277FA"></stop><stop offset="1" stop-color="white"></stop></linearGradient><linearGradient id="paint45_linear_5937_25308" x1="124.997" y1="230.344" x2="78.9306" y2="333.292" gradientUnits="userSpaceOnUse"><stop stop-color="#0277FA"></stop><stop offset="1" stop-color="white"></stop></linearGradient><linearGradient id="paint46_linear_5937_25308" x1="229.35" y1="226.934" x2="278.716" y2="220.538" gradientUnits="userSpaceOnUse"><stop stop-color="#0277FA"></stop><stop offset="1" stop-color="white"></stop></linearGradient><linearGradient id="paint47_linear_5937_25308" x1="254.904" y1="229.413" x2="234.6" y2="319.939" gradientUnits="userSpaceOnUse"><stop stop-color="#0277FA"></stop><stop offset="1" stop-color="white"></stop></linearGradient><linearGradient id="paint48_linear_5937_25308" x1="98.5075" y1="278.106" x2="6.78328" y2="245.028" gradientUnits="userSpaceOnUse"><stop stop-color="#0277FA"></stop><stop offset="1" stop-color="white"></stop></linearGradient><linearGradient id="paint49_linear_5937_25308" x1="29.8551" y1="231.016" x2="167.161" y2="234.679" gradientUnits="userSpaceOnUse"><stop stop-color="#0277FA"></stop><stop offset="1" stop-color="white"></stop></linearGradient><linearGradient id="paint50_linear_5937_25308" x1="-51.887" y1="232.644" x2="95.5383" y2="224.919" gradientUnits="userSpaceOnUse"><stop stop-color="#0277FA"></stop><stop offset="1" stop-color="white"></stop></linearGradient><linearGradient id="paint51_linear_5937_25308" x1="51.4011" y1="216.766" x2="132.666" y2="269.894" gradientUnits="userSpaceOnUse"><stop stop-color="#0277FA"></stop><stop offset="1" stop-color="white"></stop></linearGradient><linearGradient id="paint52_linear_5937_25308" x1="51.8998" y1="219.793" x2="127.612" y2="271.516" gradientUnits="userSpaceOnUse"><stop stop-color="#0277FA"></stop><stop offset="1" stop-color="white"></stop></linearGradient><linearGradient id="paint53_linear_5937_25308" x1="19.3937" y1="249.194" x2="40.9835" y2="235.014" gradientUnits="userSpaceOnUse"><stop stop-color="#0277FA"></stop><stop offset="1" stop-color="white"></stop></linearGradient><linearGradient id="paint54_linear_5937_25308" x1="20.1418" y1="250.251" x2="41.7078" y2="236.088" gradientUnits="userSpaceOnUse"><stop stop-color="#0277FA"></stop><stop offset="1" stop-color="white"></stop></linearGradient><linearGradient id="paint55_linear_5937_25308" x1="27.9819" y1="262.345" x2="49.5718" y2="248.166" gradientUnits="userSpaceOnUse"><stop stop-color="#0277FA"></stop><stop offset="1" stop-color="white"></stop></linearGradient><linearGradient id="paint56_linear_5937_25308" x1="27.3368" y1="261.239" x2="48.9028" y2="247.076" gradientUnits="userSpaceOnUse"><stop stop-color="#0277FA"></stop><stop offset="1" stop-color="white"></stop></linearGradient></defs></svg>